<svg width="70" height="56" viewBox="0 0 70 56" fill="none" xmlns="http://www.w3.org/2000/svg">
<path fill-rule="evenodd" clip-rule="evenodd" d="M69.7118 6.28797L62.528 13.2994L62.5132 13.3052C60.4845 11.0771 57.5604 9.67873 54.3097 9.67873C48.1839 9.67873 43.2179 14.6448 43.2179 20.7705C43.2179 20.8204 43.2182 20.8702 43.2189 20.9198L43.2065 20.9248C43.2141 21.1597 43.2179 21.3957 43.2179 21.6326C43.2179 33.5669 33.5433 43.2415 21.6089 43.2415C9.67459 43.2415 0 33.5669 0 21.6326C0 9.69831 9.67459 0.0236705 21.6089 0.0236705C28.2667 0.0236705 34.2212 3.03454 38.185 7.76894C40.4004 4.89707 44.0873 1.95359 49.827 0.598385C59.7579 -1.74641 67.2213 3.41445 69.7118 6.28797ZM33.103 21.6326C33.103 27.9806 27.957 33.1267 21.6089 33.1267C15.2608 33.1267 10.1148 27.9806 10.1148 21.6326C10.1148 15.2845 15.2608 10.1385 21.6089 10.1385C27.957 10.1385 33.103 15.2845 33.103 21.6326Z" fill="url(#paint0_linear_402_969)"/>
<path d="M43.1604 56V22.3797C43.1604 16.3453 40.5742 3.81673 25.9193 0.540904C11.2643 -2.73492 3.21839 9.85114 2.24139 11.9776L11.3792 16.3453L11.3968 16.3524C13.3093 12.661 17.1645 10.1385 21.609 10.1385C27.9569 10.1385 33.1031 15.2846 33.1031 21.6326C33.1031 22.5144 33.0038 23.3732 32.8157 24.198V47.8392C32.8732 50.5595 35.0226 56 43.1604 56Z" fill="#E41D86"/>
<path d="M22.6434 15.6557C22.9607 15.6557 23.2181 15.3983 23.2181 15.081C23.2181 14.7636 22.9607 14.5063 22.6434 14.5063H21.6089C20.7836 14.5063 20.1147 15.1752 20.1147 16.0005V16.92C20.1147 17.2374 20.372 17.4947 20.6894 17.4947C21.0067 17.4947 21.2641 17.2374 21.2641 16.92V16.2304C21.2641 15.913 21.5214 15.6557 21.8388 15.6557H22.6434Z" fill="white"/>
<path d="M17.9308 16.9201C17.9308 17.3644 17.5706 17.7246 17.1262 17.7246C16.6819 17.7246 16.3217 17.3644 16.3217 16.9201C16.3217 16.4757 16.6819 16.1155 17.1262 16.1155C17.5706 16.1155 17.9308 16.4757 17.9308 16.9201Z" fill="white"/>
<path fill-rule="evenodd" clip-rule="evenodd" d="M14.7125 16.9775C14.7125 15.6761 15.7675 14.6212 17.0688 14.6212C18.3702 14.6212 19.4251 15.6761 19.4251 16.9775C19.4251 18.2789 18.3702 19.3338 17.0688 19.3338C15.7675 19.3338 14.7125 18.2789 14.7125 16.9775ZM17.0688 15.5407C16.2753 15.5407 15.6321 16.184 15.6321 16.9775C15.6321 17.7711 16.2753 18.4143 17.0688 18.4143C17.8624 18.4143 18.5056 17.7711 18.5056 16.9775C18.5056 16.184 17.8624 15.5407 17.0688 15.5407Z" fill="white"/>
<path d="M17.9308 26.2302C17.9308 26.6746 17.5706 27.0348 17.1262 27.0348C16.6819 27.0348 16.3217 26.6746 16.3217 26.2302C16.3217 25.7859 16.6819 25.4257 17.1262 25.4257C17.5706 25.4257 17.9308 25.7859 17.9308 26.2302Z" fill="white"/>
<path fill-rule="evenodd" clip-rule="evenodd" d="M14.7125 26.2878C14.7125 24.9864 15.7675 23.9315 17.0688 23.9315C18.3702 23.9315 19.4251 24.9864 19.4251 26.2878C19.4251 27.5891 18.3702 28.644 17.0688 28.644C15.7675 28.644 14.7125 27.5891 14.7125 26.2878ZM17.0688 24.851C16.2753 24.851 15.6321 25.4942 15.6321 26.2878C15.6321 27.0813 16.2753 27.7245 17.0688 27.7245C17.8624 27.7245 18.5056 27.0813 18.5056 26.2878C18.5056 25.4942 17.8624 24.851 17.0688 24.851Z" fill="white"/>
<path d="M26.4365 17.7246C26.8809 17.7246 27.2411 17.3644 27.2411 16.9201C27.2411 16.4757 26.8809 16.1155 26.4365 16.1155C25.9922 16.1155 25.632 16.4757 25.632 16.9201C25.632 17.3644 25.9922 17.7246 26.4365 17.7246Z" fill="white"/>
<path fill-rule="evenodd" clip-rule="evenodd" d="M26.3791 14.6212C25.0777 14.6212 24.0228 15.6761 24.0228 16.9775C24.0228 18.2789 25.0777 19.3338 26.3791 19.3338C27.6804 19.3338 28.7354 18.2789 28.7354 16.9775C28.7354 15.6761 27.6804 14.6212 26.3791 14.6212ZM24.9423 16.9775C24.9423 16.184 25.5855 15.5407 26.3791 15.5407C27.1726 15.5407 27.8158 16.184 27.8158 16.9775C27.8158 17.7711 27.1726 18.4143 26.3791 18.4143C25.5855 18.4143 24.9423 17.7711 24.9423 16.9775Z" fill="white"/>
<path fill-rule="evenodd" clip-rule="evenodd" d="M26.8962 25.3107C26.8962 26.136 26.2273 26.805 25.402 26.805C24.5767 26.805 23.9078 26.136 23.9078 25.3107C23.9078 24.4855 24.5767 23.8165 25.402 23.8165C26.2273 23.8165 26.8962 24.4855 26.8962 25.3107ZM24.9422 25.3107C24.9422 25.5646 25.1481 25.7705 25.402 25.7705C25.6559 25.7705 25.8618 25.5646 25.8618 25.3107C25.8618 25.0568 25.6559 24.851 25.402 24.851C25.1481 24.851 24.9422 25.0568 24.9422 25.3107Z" fill="white"/>
<path d="M16.8964 20.1384C16.6108 20.1384 16.3792 20.37 16.3792 20.6556C16.3792 20.9412 16.6108 21.1729 16.8964 21.1729H18.3331V22.7246C18.3331 23.0102 18.5648 23.2418 18.8504 23.2418C19.136 23.2418 19.3676 23.0102 19.3676 22.7246V21.1729H20.8044C21.09 21.1729 21.3216 20.9412 21.3216 20.6556C21.3216 20.37 21.09 20.1384 20.8044 20.1384H16.8964Z" fill="white"/>
<path d="M23.9078 28.1843C23.9078 27.8669 24.1651 27.6096 24.4825 27.6096H26.4365C27.1347 27.6096 27.7008 27.0435 27.7008 26.3452V24.2188C27.7008 23.9332 27.9324 23.7016 28.2181 23.7016C28.5037 23.7016 28.7353 23.9332 28.7353 24.2188V26.3452C28.7353 27.6783 27.6546 28.759 26.3215 28.759H24.4825C24.1651 28.759 23.9078 28.5016 23.9078 28.1843Z" fill="white"/>
<path d="M15.7469 20.5982C15.7469 20.2808 15.4896 20.0235 15.1722 20.0235C14.8549 20.0235 14.5975 20.2808 14.5975 20.5982V21.6326C14.5975 22.4579 15.2665 23.1269 16.0918 23.1269H17.0113C17.3286 23.1269 17.586 22.8695 17.586 22.5522C17.586 22.2348 17.3286 21.9775 17.0113 21.9775H16.3217C16.0043 21.9775 15.7469 21.7201 15.7469 21.4027V20.5982Z" fill="white"/>
<path d="M20.1147 18.7591C20.1147 18.4417 20.372 18.1844 20.6894 18.1844H21.494C21.8113 18.1844 22.0687 17.927 22.0687 17.6097V16.92C22.0687 16.6027 22.326 16.3453 22.6434 16.3453C22.9607 16.3453 23.2181 16.6027 23.2181 16.92V17.8396C23.2181 18.6648 22.5491 19.3338 21.7239 19.3338H20.6894C20.372 19.3338 20.1147 19.0765 20.1147 18.7591Z" fill="white"/>
<path d="M20.727 25.8854C21.0017 25.8854 21.2244 26.1081 21.2244 26.3828V27.2647C21.2244 27.5186 21.4223 27.7245 21.6664 27.7245C21.9106 27.7245 22.1085 27.5186 22.1085 27.2647V24.3138C22.1085 24.0391 22.3311 23.8165 22.6059 23.8165C22.8806 23.8165 23.1032 24.0391 23.1032 24.3138V27.1498C23.1032 27.9751 22.46 28.644 21.6664 28.644C20.8729 28.644 20.2297 27.9751 20.2297 27.1498V26.3828C20.2297 26.1081 20.4523 25.8854 20.727 25.8854Z" fill="white"/>
<path d="M23.1032 21.6901C23.1032 22.4007 22.5425 22.9803 21.8394 23.0106L21.8389 23.0109L21.8388 23.0113C21.8388 23.0117 21.8386 23.0119 21.8382 23.0119H21.7239C21.47 23.0119 21.2641 23.2178 21.2641 23.4717V24.2763C21.2641 24.5936 21.0067 24.851 20.6894 24.851C20.372 24.851 20.1147 24.5936 20.1147 24.2763V23.4142C20.1147 22.7036 20.6754 22.124 21.3785 22.0936L21.3788 22.0934L21.379 22.093C21.379 22.0926 21.3793 22.0924 21.3796 22.0924H21.494C21.7479 22.0924 21.9537 21.8865 21.9537 21.6326V20.828C21.9537 20.5107 22.2111 20.2533 22.5284 20.2533C22.8458 20.2533 23.1032 20.5107 23.1032 20.828V21.6901Z" fill="white"/>
<path d="M23.9078 21.5177C23.9078 20.756 24.5254 20.1384 25.2871 20.1384H25.5081C26.2113 20.1384 26.7813 20.756 26.7813 21.5177C26.7813 21.5177 26.7813 21.805 26.8388 21.92C26.9061 22.0547 26.9841 22.0924 27.1261 22.0924C27.38 22.0924 27.5859 21.8865 27.5859 21.6326V20.6556C27.5859 20.37 27.8175 20.1384 28.1031 20.1384C28.3888 20.1384 28.6204 20.37 28.6204 20.6556V21.7476C28.6204 22.5093 28.0028 23.1269 27.2411 23.1269H27.02C26.3168 23.1269 25.7468 22.5093 25.7468 21.7476V21.6901C25.7468 21.2303 25.5441 21.1729 25.402 21.1729C25.1481 21.1729 24.9422 21.3787 24.9422 21.6326V22.6096C24.9422 22.8952 24.7106 23.1269 24.425 23.1269C24.1394 23.1269 23.9078 22.8952 23.9078 22.6096V21.5177Z" fill="white"/>
<defs>
<linearGradient id="paint0_linear_402_969" x1="14.9423" y1="21.6326" x2="66.6084" y2="21.6326" gradientUnits="userSpaceOnUse">
<stop stop-color="#E41D86"/>
<stop offset="0.0001" stop-color="#E11F88"/>
<stop offset="0.632178" stop-color="#1B74B5"/>
<stop offset="1" stop-color="#65C3ED"/>
</linearGradient>
</defs>
</svg>
