<svg width="129" height="37" viewBox="0 0 129 37" fill="none" xmlns="http://www.w3.org/2000/svg">
<path d="M13.4943 29.5C9.13469 29.5 5.79384 28.3143 3.47744 25.9371C1.16104 23.5599 0 19.8309 0 14.7501C0 9.6691 1.10982 6.18069 3.33515 3.70609C5.5548 1.23149 8.94687 0 13.5 0C18.0531 0 21.2688 1.18578 23.5624 3.56286C25.8504 5.94008 27 9.65198 27 14.7099C27 19.7679 25.8958 23.3193 23.6875 25.7939C21.4793 28.2685 18.0816 29.5 13.5 29.5H13.4943ZM13.4943 24.8316C14.9001 24.803 16.0953 24.4821 17.0742 23.875C18.0531 23.2621 18.7987 22.231 19.311 20.7703C19.8231 19.3096 20.0792 17.2933 20.0792 14.7099C20.0792 12.3213 19.8231 10.431 19.311 9.04479C18.7987 7.6586 18.0531 6.66757 17.0742 6.08332C16.0953 5.49906 14.9001 5.20693 13.4943 5.20693C12.0885 5.20693 10.899 5.50472 9.93149 6.10044C8.96395 6.69616 8.22406 7.69298 7.71754 9.07918C7.20531 10.471 6.9492 12.3728 6.9492 14.7901C6.9492 17.3736 7.20531 19.3955 7.71754 20.8505C8.22976 22.3111 8.96395 23.3366 9.93149 23.9323C10.899 24.528 12.0828 24.8258 13.4943 24.8258V24.8316ZM24.2568 28.9157C24.7519 28.9157 25.1787 28.87 25.5373 28.7725C25.8958 28.6751 26.3683 28.4461 26.943 28.0852V32.2496C26.4479 32.5244 25.873 32.7192 25.2243 32.8338C24.5755 32.9427 23.8356 33 23.0103 33C22.2932 33 21.5533 32.9139 20.7964 32.7479C20.0394 32.5818 19.3336 32.2667 18.6849 31.8084C18.036 31.3503 17.4612 30.7316 16.966 29.9526C16.4709 29.1735 16.1123 28.1768 15.8904 26.9509C15.6685 25.8683 15.3611 24.9175 14.957 24.0984C14.5586 23.2792 14.0919 22.6491 13.5683 22.2023C13.0447 21.7556 12.4357 21.5379 11.747 21.5379C10.8933 21.5379 10.0965 21.7327 9.36804 22.1222C8.63385 22.5117 7.97934 23.1074 7.39881 23.915V19.5788C7.86551 18.8857 8.5997 18.2499 9.59569 17.6828C10.5917 17.1158 11.7357 16.8294 13.0333 16.8294C14.1089 16.8294 15.1448 17.0642 16.1408 17.5396C17.1367 18.0151 18.0247 18.8056 18.8101 19.9168C19.5955 21.0281 20.1987 22.5403 20.6085 24.4592C20.9386 25.7939 21.4111 26.8708 22.0144 27.6899C22.6233 28.5091 23.3689 28.9215 24.251 28.9215L24.2568 28.9157Z" fill="#E12287"/>
<path d="M29 29V1H43.0811C46.3453 1 48.9006 1.7329 50.7531 3.20442C52.5996 4.67607 53.5288 6.9036 53.5288 9.89867C53.5288 11.1278 53.2667 12.3396 52.7485 13.5284C52.2303 14.7172 51.4619 15.7387 50.4493 16.5928C49.4366 17.4469 48.1679 18.0008 46.6372 18.249L46.2022 15.9406L55 28.9943H46.0713L38.8342 16.7774L41.9553 19.3396H36.0168V28.9943H29V29ZM36.0168 14.3479H41.9076C43.1466 14.3479 44.1294 14.0248 44.8562 13.3841C45.5769 12.7379 45.9403 11.676 45.9403 10.193C45.9403 8.90597 45.6127 7.92496 44.9633 7.25565C44.3141 6.5862 43.3968 6.24569 42.2114 6.24569H36.0168V14.3479Z" fill="#E12287"/>
<path d="M71.0778 18.2952V29H68V1H78.1263C81.3158 1 83.7592 1.74445 85.4567 3.22752C87.1484 4.71073 88 6.85156 88 9.65043C88 12.4493 87.1542 14.5903 85.4567 16.0733C83.7592 17.5565 81.3216 18.3009 78.1263 18.3009H71.0778V18.2952ZM71.0778 15.3982H77.7446C79.3422 15.3982 80.6167 15.2308 81.5683 14.8961C82.5198 14.5615 83.2423 14.1055 83.724 13.5343C84.2057 12.9629 84.5287 12.3397 84.6872 11.6645C84.8459 10.995 84.9222 10.3199 84.9222 9.65043C84.9222 8.98112 84.8459 8.30582 84.6872 7.6365C84.5287 6.96705 84.2115 6.34379 83.724 5.76674C83.2365 5.19538 82.5198 4.73953 81.5683 4.40487C80.6109 4.07008 79.3364 3.90268 77.7446 3.90268H71.0778V15.404V15.3982Z" fill="#E12287"/>
<path d="M97.8796 29C96.977 29 96.0689 28.9062 95.1497 28.7185C94.2359 28.5309 93.3842 28.2108 92.6058 27.7528C91.8275 27.3002 91.1958 26.6766 90.7163 25.8873C90.2369 25.0981 90 24.0991 90 22.896C90 21.2348 90.3215 19.9047 90.9644 18.9002C91.6074 17.8957 92.4987 17.1727 93.6324 16.7312C94.766 16.2897 96.0746 16.0689 97.5523 16.0689C98.6748 16.0689 99.6449 16.1352 100.468 16.2676C101.286 16.4 102.02 16.5932 102.663 16.8472C103.306 17.1009 103.886 17.388 104.405 17.708L104.981 20.3573C104.349 19.9047 103.441 19.5073 102.251 19.1706C101.061 18.8339 99.7521 18.6683 98.3308 18.6683C96.6048 18.6683 95.2793 18.9885 94.3487 19.6342C93.4181 20.2744 92.9555 21.2127 92.9555 22.4434C92.9555 23.4313 93.2376 24.226 93.7959 24.811C94.3543 25.4016 95.0649 25.8155 95.928 26.0528C96.791 26.2957 97.6708 26.4171 98.5733 26.4171C100.35 26.4171 101.698 26.2902 102.617 26.0363C103.531 25.7824 103.994 25.203 103.994 24.2923V15.0975C103.994 13.5466 103.525 12.4097 102.601 11.6867C101.67 10.9638 100.344 10.605 98.6185 10.605C97.5242 10.605 96.3679 10.7595 95.1497 11.0687C93.9313 11.3777 92.8878 11.8634 92.0135 12.5367V9.64473C92.8596 9.10935 93.9989 8.70094 95.4203 8.41947C96.8417 8.13801 98.2236 8 99.566 8C100.468 8 101.303 8.08837 102.07 8.25951C102.837 8.4361 103.52 8.68989 104.123 9.02113C104.727 9.35768 105.24 9.78274 105.663 10.3071C106.086 10.8313 106.413 11.4329 106.65 12.1118C106.882 12.7961 107 13.5633 107 14.4187V24.1322C107 25.5506 106.571 26.6103 105.708 27.3056C104.845 28.0011 103.723 28.4537 102.341 28.6689C100.959 28.8841 99.4757 28.989 97.8908 28.989L97.8796 29Z" fill="#E12287"/>
<path d="M120.453 29.4729C118.327 29.4729 116.559 29.0544 115.168 28.2175C113.771 27.3805 112.728 26.1872 112.038 24.6377C111.348 23.0882 111 21.2559 111 19.1465C111 16.7882 111.319 14.8768 111.952 13.4064C112.585 11.9417 113.412 10.8163 114.421 10.0359C115.43 9.2555 116.536 8.71822 117.739 8.42981C118.942 8.14141 120.111 8 121.246 8C122.546 8 123.783 8.16963 124.958 8.51463C126.132 8.85963 127.101 9.39691 127.86 10.1376C128.618 10.8785 129 11.8682 129 13.1011V29.7217C129 30.5474 128.875 31.3787 128.629 32.2326C128.379 33.0809 127.928 33.8726 127.284 34.5966C126.634 35.3204 125.722 35.9086 124.547 36.344C123.373 36.7851 121.856 37 120.003 37C118.811 37 117.722 36.8925 116.724 36.6721C115.727 36.4514 114.86 36.2478 114.113 36.0555V33.2563C114.552 33.3637 115.06 33.4938 115.63 33.6464C116.194 33.7991 116.816 33.9292 117.494 34.0367C118.173 34.1441 118.897 34.2007 119.672 34.2007C121.554 34.2007 122.939 33.9745 123.84 33.5221C124.741 33.0696 125.328 32.5098 125.602 31.8367C125.876 31.1638 126.018 30.4852 126.018 29.801V26.798L127.056 27.8272C126.531 28.1043 125.864 28.3645 125.066 28.6076C124.262 28.8565 123.447 29.0601 122.62 29.2241C121.793 29.3881 121.069 29.4729 120.465 29.4729H120.453ZM120.453 26.7584C121.337 26.7584 122.272 26.6396 123.253 26.4078C124.233 26.1759 125.151 25.814 126.012 25.3164V13.5083C126.012 12.739 125.796 12.1566 125.368 11.7608C124.941 11.3649 124.365 11.0878 123.646 10.9351C122.928 10.7824 122.152 10.7089 121.326 10.7089C119.307 10.7089 117.785 11.0991 116.764 11.8795C115.744 12.6599 115.048 13.6948 114.689 14.9843C114.33 16.2736 114.147 17.6592 114.147 19.1408C114.147 21.3916 114.632 23.2183 115.601 24.632C116.571 26.0458 118.184 26.7527 120.453 26.7527V26.7584Z" fill="#E12287"/>
</svg>
