<svg width="1440" height="1298" viewBox="0 0 1440 1298" fill="none" xmlns="http://www.w3.org/2000/svg">
<rect y="94" width="1440" height="900" fill="#E12287"/>
<path fill-rule="evenodd" clip-rule="evenodd" d="M174.512 111.825L156.875 148.458L156.827 148.5C146.021 142.828 132.955 141.554 120.581 146.054C97.2652 154.535 85.2383 180.312 93.7188 203.628C93.7879 203.818 93.8581 204.007 93.9294 204.195L93.8891 204.231C94.2432 205.114 94.5843 206.007 94.9122 206.909C111.434 252.334 88.0038 302.552 42.5788 319.073C-2.84629 335.595 -53.0637 312.165 -69.5857 266.74C-86.1075 221.315 -62.6772 171.097 -17.2522 154.576C8.08882 145.359 34.9215 148.575 56.5632 161.108C61.0197 147.11 70.9778 130.802 90.9484 117.698C125.502 95.0246 161.054 104.336 174.512 111.825ZM56.4127 220.912C65.2009 245.074 52.7382 271.786 28.5758 280.574C4.4134 289.362 -22.298 276.899 -31.0861 252.737C-39.8745 228.575 -27.4116 201.863 -3.24919 193.075C20.9132 184.287 47.6244 196.75 56.4127 220.912Z" fill="white" fill-opacity="0.1"/>
<path d="M142.272 337.8L95.7281 209.833C87.374 186.864 60.1858 142.758 -0.129819 150.577C-60.4454 158.397 -73.6459 217.442 -74.4207 226.888L-33.5932 230.862L-33.5164 230.865C-31.3474 214.167 -20.1655 199.228 -3.24892 193.075C20.913 184.287 47.6249 196.75 56.413 220.912C57.6338 224.269 58.4446 227.675 58.8708 231.075L91.5997 321.059C95.5845 331.334 111.297 349.066 142.272 337.8Z" fill="white" fill-opacity="0.1"/>
<path d="M8.32635 212.643C9.53428 212.204 10.1575 210.868 9.7182 209.66C9.27886 208.452 7.94303 207.829 6.73511 208.269L2.79766 209.701C-0.343553 210.843 -1.96366 214.316 -0.821148 217.457L0.451851 220.957C0.891194 222.165 2.22702 222.788 3.43495 222.349C4.64287 221.909 5.26614 220.573 4.82679 219.365L3.87205 216.74C3.4327 215.533 4.05597 214.197 5.26389 213.757L8.32635 212.643Z" fill="white" fill-opacity="0.1"/>
<path fill-rule="evenodd" clip-rule="evenodd" d="M-20.0305 228.654C-21.8322 223.701 -19.2773 218.225 -14.324 216.423C-9.37066 214.622 -3.89488 217.177 -2.09327 222.13C-0.291661 227.083 -2.84654 232.559 -7.79985 234.361C-12.7532 236.162 -18.2289 233.607 -20.0305 228.654ZM-13.051 219.923C-16.0714 221.022 -17.6292 224.361 -16.5306 227.381C-15.432 230.402 -12.0933 231.959 -9.07285 230.861C-6.05239 229.762 -4.49463 226.424 -5.59323 223.403C-6.69183 220.383 -10.0305 218.825 -13.051 219.923Z" fill="white" fill-opacity="0.1"/>
<path d="M5.02865 259.417C5.64383 261.108 4.77142 262.978 3.08006 263.593C1.38871 264.208 -0.481094 263.336 -1.09627 261.645C-1.71145 259.953 -0.839037 258.084 0.852317 257.468C2.54367 256.853 4.41347 257.726 5.02865 259.417Z" fill="white" fill-opacity="0.1"/>
<path fill-rule="evenodd" clip-rule="evenodd" d="M-7.14126 264.091C-8.94287 259.138 -6.388 253.662 -1.43468 251.861C3.51863 250.059 8.9944 252.614 10.796 257.567C12.5976 262.521 10.0427 267.996 5.08943 269.798C0.136121 271.6 -5.33965 269.045 -7.14126 264.091ZM-0.161686 255.361C-3.18215 256.459 -4.7399 259.798 -3.64131 262.818C-2.54271 265.839 0.795973 267.397 3.81643 266.298C6.8369 265.199 8.39465 261.861 7.29605 258.84C6.19746 255.82 2.85878 254.262 -0.161686 255.361Z" fill="white" fill-opacity="0.1"/>
<path d="M25.6282 215.267C27.3196 214.652 28.192 212.782 27.5768 211.091C26.9616 209.399 25.0918 208.527 23.4005 209.142C21.7091 209.757 20.8367 211.627 21.4519 213.318C22.0671 215.01 23.9369 215.882 25.6282 215.267Z" fill="white" fill-opacity="0.1"/>
<path fill-rule="evenodd" clip-rule="evenodd" d="M21.1132 203.534C16.1599 205.336 13.605 210.812 15.4066 215.765C17.2082 220.718 22.684 223.273 27.6373 221.472C32.5906 219.67 35.1455 214.194 33.3439 209.241C31.5423 204.288 26.0665 201.733 21.1132 203.534ZM18.9065 214.492C17.8079 211.472 19.3657 208.133 22.3862 207.034C25.4066 205.936 28.7453 207.493 29.8439 210.514C30.9425 213.534 29.3847 216.873 26.3643 217.972C23.3438 219.07 20.0051 217.512 18.9065 214.492Z" fill="white" fill-opacity="0.1"/>
<path fill-rule="evenodd" clip-rule="evenodd" d="M37.8804 243.506C39.0229 246.647 37.4028 250.119 34.2616 251.262C31.1204 252.404 27.648 250.784 26.5055 247.643C25.363 244.502 26.9831 241.029 30.1243 239.887C33.2655 238.744 36.7379 240.364 37.8804 243.506ZM30.443 246.211C30.7945 247.177 31.863 247.676 32.8294 247.324C33.7959 246.973 34.2944 245.904 33.9429 244.938C33.5914 243.971 32.5229 243.473 31.5564 243.824C30.59 244.176 30.0915 245.244 30.443 246.211Z" fill="white" fill-opacity="0.1"/>
<path d="M-7.34237 237.662C-8.42954 238.057 -8.99046 239.259 -8.59503 240.346C-8.19961 241.434 -6.99742 241.994 -5.91025 241.599L-0.441566 239.61L1.70662 245.516C2.10204 246.603 3.30423 247.164 4.39141 246.769C5.47858 246.373 6.03949 245.171 5.64407 244.084L3.49588 238.178L8.96457 236.189C10.0517 235.793 10.6127 234.591 10.2172 233.504C9.8218 232.417 8.61962 231.856 7.53244 232.251L-7.34237 237.662Z" fill="white" fill-opacity="0.1"/>
<path d="M30.4836 258.58C30.0443 257.372 30.6676 256.036 31.8755 255.597L39.3129 252.892C41.9707 251.925 43.3416 248.987 42.375 246.329L39.4311 238.235C39.0357 237.148 39.5966 235.946 40.6838 235.55C41.771 235.155 42.9732 235.716 43.3686 236.803L46.3124 244.897C48.1579 249.971 45.5407 255.58 40.4666 257.426L33.4667 259.972C32.2588 260.411 30.923 259.788 30.4836 258.58Z" fill="white" fill-opacity="0.1"/>
<path d="M2.99793 227.957C2.55859 226.749 3.18186 225.413 4.38978 224.974L7.45224 223.86C8.66016 223.42 9.28343 222.085 8.84409 220.877L7.88934 218.252C7.45 217.044 8.07327 215.708 9.28119 215.269C10.4891 214.829 11.8249 215.452 12.2643 216.66L13.5373 220.16C14.6798 223.302 13.0597 226.774 9.91848 227.916L5.98103 229.349C4.77311 229.788 3.43728 229.165 2.99793 227.957Z" fill="white" fill-opacity="0.1"/>
<path d="M15.1944 254.233C16.24 253.853 17.3957 254.392 17.776 255.438L18.997 258.795C19.3485 259.761 20.3868 260.271 21.3161 259.933C22.2453 259.595 22.7137 258.537 22.3622 257.571L18.277 246.339C17.8966 245.293 18.4358 244.138 19.4815 243.758C20.5271 243.377 21.6827 243.916 22.063 244.962L25.9891 255.756C27.1316 258.898 25.6095 262.334 22.5891 263.433C19.5686 264.531 16.1943 262.876 15.0518 259.734L13.9899 256.815C13.6096 255.769 14.1488 254.614 15.1944 254.233Z" fill="white" fill-opacity="0.1"/>
<path d="M18.4304 234.975C19.4141 237.68 18.0825 240.662 15.4483 241.751L15.4469 241.753L15.4471 241.755C15.4476 241.756 15.447 241.757 15.4457 241.758L15.0104 241.916C14.044 242.267 13.5454 243.336 13.8969 244.302L15.0108 247.365C15.4501 248.573 14.8269 249.909 13.6189 250.348C12.411 250.787 11.0752 250.164 10.6358 248.956L9.4424 245.675C8.45869 242.97 9.79032 239.988 12.4245 238.899L12.4255 238.898L12.4257 238.896C12.4252 238.894 12.4258 238.893 12.4271 238.893L12.8624 238.734C13.8288 238.383 14.3274 237.314 13.9759 236.348L12.862 233.285C12.4227 232.077 13.0459 230.742 14.2539 230.302C15.4618 229.863 16.7976 230.486 17.2369 231.694L18.4304 234.975Z" fill="white" fill-opacity="0.1"/>
<path d="M21.2542 233.205C20.1997 230.305 21.6954 227.1 24.5947 226.045L25.436 225.739C28.1126 224.766 31.1371 226.327 32.1916 229.227C32.1916 229.227 32.5894 230.32 32.9673 230.678C33.4101 231.098 33.7589 231.133 34.2997 230.937C35.2661 230.585 35.7647 229.517 35.4132 228.55L34.0606 224.832C33.6652 223.744 34.2261 222.542 35.3133 222.147C36.4004 221.751 37.6026 222.312 37.9981 223.399L39.5097 227.556C40.5643 230.455 39.0686 233.661 36.1693 234.715L35.328 235.021C32.6514 235.995 29.6269 234.433 28.5724 231.534L28.4928 231.315C27.8563 229.565 27.005 229.627 26.4643 229.824C25.4979 230.175 24.9993 231.244 25.3508 232.21L26.7034 235.929C27.0988 237.016 26.5379 238.218 25.4507 238.614C24.3635 239.009 23.1613 238.448 22.7659 237.361L21.2542 233.205Z" fill="white" fill-opacity="0.1"/>
<path fill-rule="evenodd" clip-rule="evenodd" d="M54.475 730.118L71.5105 765.501L71.5568 765.543C81.9947 760.064 94.6151 758.833 106.566 763.18C129.088 771.371 140.705 796.269 132.513 818.79C132.447 818.974 132.379 819.156 132.31 819.338L132.349 819.373C132.007 820.226 131.677 821.089 131.361 821.96C115.402 865.836 138.033 914.342 181.91 930.3C225.786 946.259 274.292 923.627 290.25 879.751C306.209 835.875 283.577 787.369 239.701 771.411C215.224 762.508 189.306 765.615 168.402 777.72C164.098 764.199 154.479 748.448 135.189 735.79C101.814 713.89 67.4735 722.884 54.475 730.118ZM168.547 835.485C160.059 858.824 172.097 884.625 195.435 893.113C218.774 901.602 244.575 889.564 253.063 866.225C261.552 842.887 249.514 817.086 226.175 808.598C202.837 800.109 177.036 812.147 168.547 835.485Z" fill="white" fill-opacity="0.1"/>
<path d="M85.6153 948.387L130.573 824.783C138.642 802.598 164.903 759.995 223.162 767.548C281.422 775.101 294.172 832.133 294.92 841.257L255.485 845.096L255.411 845.098C253.316 828.969 242.515 814.54 226.175 808.597C202.837 800.109 177.036 812.147 168.547 835.485C167.368 838.727 166.585 842.017 166.173 845.301L134.56 932.217C130.711 942.142 115.534 959.269 85.6153 948.387Z" fill="white" fill-opacity="0.1"/>
<path d="M214.994 827.498C213.828 827.074 213.226 825.783 213.65 824.617C214.074 823.45 215.365 822.848 216.531 823.272L220.335 824.655C223.369 825.759 224.934 829.113 223.83 832.147L222.6 835.528C222.176 836.694 220.886 837.296 219.719 836.872C218.552 836.448 217.95 835.157 218.375 833.991L219.297 831.455C219.721 830.289 219.119 828.998 217.953 828.574L214.994 827.498Z" fill="white" fill-opacity="0.1"/>
<path d="M230.629 838.448C230.035 840.082 230.878 841.888 232.512 842.482C234.145 843.076 235.951 842.234 236.546 840.6C237.14 838.966 236.297 837.16 234.663 836.566C233.03 835.972 231.224 836.815 230.629 838.448Z" fill="white" fill-opacity="0.1"/>
<path fill-rule="evenodd" clip-rule="evenodd" d="M242.385 842.963C244.125 838.179 241.657 832.89 236.873 831.149C232.088 829.409 226.799 831.877 225.059 836.661C223.319 841.446 225.786 846.735 230.571 848.475C235.355 850.215 240.644 847.748 242.385 842.963ZM235.643 834.53C238.56 835.591 240.065 838.816 239.004 841.734C237.943 844.651 234.718 846.156 231.8 845.095C228.883 844.033 227.378 840.809 228.439 837.891C229.501 834.974 232.725 833.469 235.643 834.53Z" fill="white" fill-opacity="0.1"/>
<path d="M218.18 872.678C217.585 874.312 218.428 876.118 220.062 876.712C221.696 877.306 223.502 876.463 224.096 874.83C224.69 873.196 223.847 871.39 222.214 870.796C220.58 870.201 218.774 871.044 218.18 872.678Z" fill="white" fill-opacity="0.1"/>
<path fill-rule="evenodd" clip-rule="evenodd" d="M229.935 877.192C231.675 872.408 229.207 867.119 224.423 865.379C219.638 863.639 214.349 866.106 212.609 870.891C210.869 875.675 213.337 880.964 218.121 882.704C222.905 884.445 228.195 881.977 229.935 877.192ZM223.193 868.759C226.111 869.82 227.615 873.045 226.554 875.963C225.493 878.88 222.268 880.385 219.351 879.324C216.433 878.263 214.928 875.038 215.99 872.12C217.051 869.203 220.276 867.698 223.193 868.759Z" fill="white" fill-opacity="0.1"/>
<path d="M198.282 830.032C196.649 829.438 195.806 827.632 196.4 825.998C196.994 824.364 198.801 823.522 200.434 824.116C202.068 824.71 202.911 826.516 202.316 828.15C201.722 829.784 199.916 830.626 198.282 830.032Z" fill="white" fill-opacity="0.1"/>
<path fill-rule="evenodd" clip-rule="evenodd" d="M202.644 818.7C207.428 820.44 209.896 825.729 208.156 830.514C206.415 835.298 201.126 837.766 196.342 836.026C191.557 834.286 189.09 828.996 190.83 824.212C192.57 819.428 197.859 816.96 202.644 818.7ZM204.775 829.284C205.836 826.367 204.331 823.142 201.414 822.081C198.497 821.019 195.272 822.524 194.211 825.442C193.149 828.359 194.654 831.584 197.571 832.645C200.489 833.706 203.714 832.202 204.775 829.284Z" fill="white" fill-opacity="0.1"/>
<path fill-rule="evenodd" clip-rule="evenodd" d="M186.448 857.308C185.344 860.342 186.909 863.696 189.943 864.8C192.978 865.904 196.332 864.339 197.435 861.305C198.539 858.27 196.974 854.917 193.94 853.813C190.906 852.709 187.552 854.274 186.448 857.308ZM193.632 859.921C193.292 860.855 192.26 861.336 191.327 860.997C190.393 860.657 189.912 859.625 190.251 858.692C190.591 857.758 191.623 857.277 192.556 857.616C193.49 857.956 193.971 858.988 193.632 859.921Z" fill="white" fill-opacity="0.1"/>
<path d="M230.129 851.664C231.179 852.046 231.721 853.207 231.339 854.257C230.957 855.307 229.796 855.849 228.746 855.467L223.463 853.546L221.388 859.251C221.007 860.301 219.845 860.843 218.795 860.461C217.745 860.079 217.203 858.918 217.585 857.868L219.66 852.163L214.378 850.241C213.328 849.86 212.786 848.698 213.168 847.648C213.55 846.598 214.711 846.056 215.761 846.438L230.129 851.664Z" fill="white" fill-opacity="0.1"/>
<path d="M193.593 871.869C194.017 870.702 193.415 869.412 192.248 868.988L185.064 866.375C182.497 865.441 181.173 862.603 182.107 860.036L184.95 852.218C185.332 851.168 184.79 850.007 183.74 849.625C182.69 849.243 181.529 849.785 181.147 850.835L178.304 858.652C176.521 863.553 179.049 868.972 183.95 870.754L190.711 873.213C191.878 873.638 193.168 873.036 193.593 871.869Z" fill="white" fill-opacity="0.1"/>
<path d="M233.74 854.891C234.165 853.724 235.455 853.122 236.622 853.546C237.788 853.971 238.39 855.261 237.966 856.428L236.583 860.231C235.479 863.265 232.125 864.83 229.091 863.726L225.71 862.497C224.544 862.073 223.942 860.782 224.366 859.615C224.79 858.449 226.081 857.847 227.247 858.271L229.783 859.193C230.95 859.618 232.24 859.016 232.664 857.849L233.74 854.891Z" fill="white" fill-opacity="0.1"/>
<path d="M220.141 842.29C220.566 841.123 219.964 839.833 218.797 839.408L215.839 838.332C214.672 837.908 214.07 836.618 214.494 835.451L215.417 832.916C215.841 831.749 215.239 830.458 214.072 830.034C212.905 829.61 211.615 830.212 211.191 831.379L209.961 834.759C208.858 837.793 210.422 841.147 213.457 842.251L217.26 843.634C218.427 844.058 219.717 843.456 220.141 842.29Z" fill="white" fill-opacity="0.1"/>
<path d="M208.361 867.671C207.351 867.303 206.234 867.824 205.867 868.834L204.688 872.076C204.348 873.01 203.345 873.502 202.448 873.176C201.55 872.849 201.098 871.828 201.437 870.894L205.383 860.045C205.75 859.035 205.23 857.919 204.22 857.552C203.21 857.184 202.093 857.705 201.726 858.715L197.934 869.142C196.83 872.176 198.301 875.495 201.218 876.556C204.135 877.617 207.395 876.018 208.498 872.984L209.524 870.164C209.891 869.154 209.37 868.038 208.361 867.671Z" fill="white" fill-opacity="0.1"/>
<path d="M205.235 849.069C204.285 851.682 205.571 854.563 208.115 855.614L208.117 855.616L208.116 855.618C208.116 855.619 208.117 855.62 208.118 855.621L208.538 855.774C209.472 856.113 209.953 857.145 209.614 858.079L208.538 861.037C208.114 862.203 208.716 863.494 209.882 863.918C211.049 864.342 212.339 863.74 212.764 862.574L213.916 859.404C214.867 856.792 213.58 853.911 211.036 852.859L211.035 852.858L211.035 852.856C211.035 852.855 211.035 852.854 211.034 852.853L210.613 852.7C209.68 852.361 209.198 851.329 209.538 850.395L210.613 847.437C211.038 846.27 210.436 844.98 209.269 844.556C208.102 844.131 206.812 844.733 206.388 845.9L205.235 849.069Z" fill="white" fill-opacity="0.1"/>
<path d="M202.507 847.359C203.526 844.559 202.081 841.462 199.281 840.444L198.468 840.148C195.883 839.208 192.961 840.716 191.943 843.517C191.943 843.517 191.559 844.573 191.194 844.919C190.766 845.324 190.429 845.358 189.907 845.168C188.973 844.829 188.492 843.797 188.831 842.863L190.138 839.271C190.52 838.221 189.978 837.06 188.928 836.678C187.878 836.296 186.716 836.838 186.334 837.888L184.874 841.903C183.856 844.703 185.3 847.799 188.101 848.818L188.913 849.113C191.499 850.054 194.42 848.545 195.439 845.745L195.516 845.534C196.13 843.843 196.953 843.903 197.475 844.093C198.408 844.433 198.89 845.465 198.55 846.398L197.244 849.99C196.862 851.04 197.404 852.202 198.454 852.583C199.504 852.965 200.665 852.424 201.047 851.374L202.507 847.359Z" fill="white" fill-opacity="0.1"/>
<path fill-rule="evenodd" clip-rule="evenodd" d="M880.199 204.798L852.115 263.128L852.039 263.196C834.832 254.164 814.027 252.135 794.324 259.301C757.197 272.805 738.047 313.85 751.55 350.977C751.66 351.279 751.772 351.58 751.886 351.88L751.821 351.937C752.385 353.344 752.928 354.766 753.451 356.202C779.759 428.533 742.45 508.496 670.119 534.804C597.787 561.112 517.825 523.804 491.517 451.472C465.208 379.141 502.517 299.178 574.848 272.87C615.2 258.194 657.926 263.315 692.387 283.272C699.483 260.982 715.339 235.015 747.139 214.149C802.159 178.046 858.77 192.872 880.199 204.798ZM692.147 378.499C706.14 416.973 686.296 459.506 647.821 473.5C609.347 487.494 566.814 467.648 552.82 429.175C538.826 390.7 558.671 348.168 597.146 334.174C635.62 320.18 678.153 340.025 692.147 378.499Z" fill="white" fill-opacity="0.1"/>
<path d="M828.863 564.622L754.75 360.857C741.448 324.284 698.155 254.052 602.113 266.503C506.071 278.955 485.052 372.973 483.818 388.015L548.829 394.343L548.951 394.347C552.405 367.758 570.21 343.972 597.147 334.174C635.62 320.181 678.154 340.026 692.148 378.5C694.092 383.844 695.383 389.268 696.061 394.681L748.176 537.965C754.521 554.326 779.542 582.562 828.863 564.622Z" fill="white" fill-opacity="0.1"/>
<path d="M615.578 365.332C617.501 364.633 618.494 362.506 617.794 360.582C617.095 358.659 614.967 357.667 613.044 358.366L606.774 360.647C601.773 362.466 599.193 367.995 601.012 372.997L603.039 378.57C603.739 380.493 605.866 381.486 607.789 380.786C609.713 380.086 610.705 377.959 610.005 376.036L608.485 371.856C607.786 369.933 608.778 367.806 610.701 367.106L615.578 365.332Z" fill="white" fill-opacity="0.1"/>
<path d="M589.803 383.384C590.783 386.077 589.394 389.054 586.7 390.034C584.007 391.013 581.03 389.624 580.05 386.931C579.071 384.238 580.46 381.26 583.153 380.281C585.846 379.301 588.824 380.69 589.803 383.384Z" fill="white" fill-opacity="0.1"/>
<path fill-rule="evenodd" clip-rule="evenodd" d="M570.425 390.827C567.556 382.94 571.624 374.221 579.511 371.352C587.399 368.483 596.118 372.552 598.987 380.439C601.855 388.326 597.787 397.045 589.9 399.914C582.013 402.783 573.293 398.715 570.425 390.827ZM581.538 376.925C576.729 378.675 574.248 383.991 575.998 388.8C577.747 393.61 583.063 396.09 587.873 394.341C592.682 392.592 595.163 387.275 593.413 382.466C591.664 377.656 586.348 375.176 581.538 376.925Z" fill="white" fill-opacity="0.1"/>
<path d="M610.327 439.812C611.306 442.505 609.917 445.482 607.224 446.462C604.531 447.441 601.554 446.052 600.574 443.359C599.595 440.666 600.984 437.688 603.677 436.709C606.37 435.729 609.347 437.118 610.327 439.812Z" fill="white" fill-opacity="0.1"/>
<path fill-rule="evenodd" clip-rule="evenodd" d="M590.948 447.255C588.079 439.368 592.148 430.648 600.035 427.78C607.922 424.911 616.641 428.979 619.51 436.866C622.379 444.754 618.311 453.473 610.423 456.342C602.536 459.21 593.817 455.142 590.948 447.255ZM602.062 433.353C597.252 435.102 594.772 440.418 596.521 445.228C598.271 450.037 603.587 452.518 608.396 450.769C613.206 449.019 615.686 443.703 613.937 438.893C612.188 434.084 606.871 431.603 602.062 433.353Z" fill="white" fill-opacity="0.1"/>
<path d="M643.128 369.51C645.822 368.531 647.211 365.553 646.231 362.86C645.252 360.167 642.274 358.778 639.581 359.757C636.888 360.737 635.499 363.714 636.478 366.407C637.458 369.101 640.435 370.49 643.128 369.51Z" fill="white" fill-opacity="0.1"/>
<path fill-rule="evenodd" clip-rule="evenodd" d="M635.939 350.828C628.052 353.697 623.983 362.416 626.852 370.303C629.721 378.19 638.44 382.259 646.327 379.39C654.215 376.521 658.283 367.802 655.414 359.915C652.545 352.027 643.826 347.959 635.939 350.828ZM632.425 368.276C630.676 363.467 633.156 358.15 637.966 356.401C642.775 354.652 648.092 357.132 649.841 361.942C651.59 366.751 649.11 372.068 644.3 373.817C639.491 375.566 634.174 373.086 632.425 368.276Z" fill="white" fill-opacity="0.1"/>
<path fill-rule="evenodd" clip-rule="evenodd" d="M662.637 414.475C664.457 419.477 661.877 425.006 656.875 426.825C651.873 428.644 646.344 426.064 644.525 421.063C642.706 416.061 645.285 410.532 650.287 408.712C655.289 406.893 660.818 409.473 662.637 414.475ZM650.795 418.782C651.354 420.321 653.056 421.115 654.595 420.555C656.133 419.995 656.927 418.294 656.368 416.755C655.808 415.216 654.106 414.422 652.568 414.982C651.029 415.542 650.235 417.243 650.795 418.782Z" fill="white" fill-opacity="0.1"/>
<path d="M590.628 405.17C588.897 405.8 588.004 407.714 588.633 409.445C589.263 411.176 591.177 412.069 592.909 411.44L601.616 408.272L605.037 417.677C605.667 419.408 607.581 420.301 609.312 419.672C611.043 419.042 611.936 417.128 611.307 415.396L607.886 405.992L616.594 402.825C618.325 402.195 619.218 400.281 618.589 398.55C617.959 396.819 616.045 395.925 614.314 396.555L590.628 405.17Z" fill="white" fill-opacity="0.1"/>
<path d="M650.859 438.478C650.16 436.555 651.152 434.428 653.076 433.728L664.918 429.421C669.151 427.881 671.334 423.202 669.794 418.97L665.107 406.083C664.477 404.352 665.37 402.437 667.101 401.808C668.833 401.178 670.747 402.071 671.376 403.802L676.064 416.69C679.003 424.77 674.835 433.702 666.756 436.64L655.609 440.694C653.686 441.394 651.559 440.401 650.859 438.478Z" fill="white" fill-opacity="0.1"/>
<path d="M584.675 410.49C583.976 408.566 581.848 407.574 579.925 408.273C578.002 408.973 577.009 411.1 577.709 413.023L579.989 419.293C581.808 424.295 587.338 426.875 592.339 425.055L597.912 423.028C599.836 422.329 600.828 420.202 600.129 418.278C599.429 416.355 597.302 415.363 595.379 416.062L591.199 417.582C589.275 418.282 587.148 417.29 586.449 415.366L584.675 410.49Z" fill="white" fill-opacity="0.1"/>
<path d="M607.093 389.716C606.394 387.793 607.386 385.666 609.309 384.966L614.186 383.193C616.109 382.493 617.102 380.366 616.402 378.442L614.882 374.263C614.182 372.339 615.175 370.212 617.098 369.513C619.022 368.813 621.149 369.805 621.848 371.729L623.875 377.302C625.694 382.304 623.115 387.833 618.113 389.652L611.843 391.932C609.92 392.632 607.793 391.64 607.093 389.716Z" fill="white" fill-opacity="0.1"/>
<path d="M626.514 431.558C628.179 430.952 630.019 431.811 630.625 433.475L632.569 438.821C633.129 440.36 634.782 441.171 636.262 440.633C637.741 440.095 638.487 438.411 637.927 436.872L631.423 418.987C630.817 417.322 631.676 415.482 633.34 414.876C635.005 414.271 636.846 415.129 637.451 416.794L643.703 433.982C645.522 438.984 643.098 444.457 638.289 446.206C633.479 447.955 628.106 445.319 626.287 440.317L624.596 435.668C623.991 434.003 624.849 432.163 626.514 431.558Z" fill="white" fill-opacity="0.1"/>
<path d="M631.667 400.892C633.233 405.199 631.113 409.948 626.918 411.682L626.916 411.684L626.916 411.687C626.917 411.689 626.916 411.691 626.914 411.692L626.221 411.944C624.682 412.504 623.888 414.205 624.448 415.744L626.222 420.621C626.921 422.544 625.929 424.671 624.005 425.371C622.082 426.07 619.955 425.078 619.255 423.154L617.355 417.93C615.789 413.623 617.909 408.874 622.103 407.14L622.105 407.138L622.105 407.135C622.105 407.133 622.106 407.131 622.108 407.13L622.801 406.878C624.34 406.318 625.133 404.617 624.574 403.078L622.8 398.201C622.101 396.278 623.093 394.151 625.016 393.451C626.94 392.752 629.067 393.744 629.766 395.668L631.667 400.892Z" fill="white" fill-opacity="0.1"/>
<path d="M636.163 398.073C634.484 393.456 636.866 388.352 641.482 386.673L642.822 386.186C647.084 384.635 651.9 387.122 653.579 391.739C653.579 391.739 654.213 393.48 654.814 394.05C655.52 394.718 656.075 394.775 656.936 394.462C658.475 393.902 659.269 392.2 658.709 390.662L656.555 384.74C655.926 383.009 656.819 381.095 658.55 380.465C660.281 379.835 662.195 380.729 662.825 382.46L665.232 389.078C666.911 393.694 664.53 398.799 659.913 400.478L658.573 400.965C654.311 402.515 649.495 400.029 647.816 395.412L647.69 395.064C646.676 392.277 645.32 392.376 644.459 392.689C642.921 393.249 642.127 394.95 642.686 396.489L644.84 402.411C645.47 404.142 644.577 406.056 642.845 406.686C641.114 407.315 639.2 406.422 638.57 404.691L636.163 398.073Z" fill="white" fill-opacity="0.1"/>
<path fill-rule="evenodd" clip-rule="evenodd" d="M960.369 842.109L932.286 900.44L932.209 900.508C915.002 891.476 894.197 889.447 874.495 896.613C837.368 910.117 818.217 951.162 831.721 988.289C831.831 988.591 831.943 988.892 832.056 989.192L831.992 989.249C832.556 990.656 833.099 992.078 833.621 993.514C859.929 1065.85 822.621 1145.81 750.289 1172.12C677.958 1198.42 597.995 1161.12 571.687 1088.78C545.379 1016.45 582.688 936.49 655.019 910.182C695.37 895.505 738.096 900.627 772.557 920.583C779.653 898.294 795.51 872.327 827.309 851.461C882.33 815.357 938.941 830.184 960.369 842.109ZM772.317 1015.81C786.311 1054.28 766.466 1096.82 727.992 1110.81C689.518 1124.81 646.984 1104.96 632.991 1066.49C618.997 1028.01 638.842 985.479 677.316 971.485C715.791 957.492 758.324 977.337 772.317 1015.81Z" fill="white" fill-opacity="0.1"/>
<path d="M909.034 1201.93L834.921 998.169C821.618 961.596 778.326 891.364 682.284 903.815C586.242 916.267 565.222 1010.28 563.988 1025.33L628.999 1031.65L629.121 1031.66C632.575 1005.07 650.38 981.283 677.317 971.486C715.791 957.492 758.325 977.338 772.318 1015.81C774.262 1021.16 775.553 1026.58 776.232 1031.99L828.347 1175.28C834.692 1191.64 859.712 1219.87 909.034 1201.93Z" fill="white" fill-opacity="0.1"/>
<path d="M695.748 1002.64C697.672 1001.94 698.664 999.818 697.965 997.894C697.265 995.971 695.138 994.979 693.215 995.678L686.945 997.959C681.943 999.778 679.363 1005.31 681.183 1010.31L683.21 1015.88C683.909 1017.81 686.036 1018.8 687.96 1018.1C689.883 1017.4 690.876 1015.27 690.176 1013.35L688.656 1009.17C687.956 1007.24 688.949 1005.12 690.872 1004.42L695.748 1002.64Z" fill="white" fill-opacity="0.1"/>
<path d="M669.974 1020.7C670.953 1023.39 669.564 1026.37 666.871 1027.35C664.178 1028.33 661.2 1026.94 660.221 1024.24C659.241 1021.55 660.63 1018.57 663.324 1017.59C666.017 1016.61 668.994 1018 669.974 1020.7Z" fill="white" fill-opacity="0.1"/>
<path fill-rule="evenodd" clip-rule="evenodd" d="M650.595 1028.14C647.726 1020.25 651.795 1011.53 659.682 1008.66C667.569 1005.8 676.288 1009.86 679.157 1017.75C682.026 1025.64 677.958 1034.36 670.07 1037.23C662.183 1040.09 653.464 1036.03 650.595 1028.14ZM661.709 1014.24C656.899 1015.99 654.419 1021.3 656.168 1026.11C657.918 1030.92 663.234 1033.4 668.043 1031.65C672.853 1029.9 675.333 1024.59 673.584 1019.78C671.835 1014.97 666.518 1012.49 661.709 1014.24Z" fill="white" fill-opacity="0.1"/>
<path d="M690.497 1077.12C691.477 1079.82 690.088 1082.79 687.395 1083.77C684.701 1084.75 681.724 1083.36 680.745 1080.67C679.765 1077.98 681.154 1075 683.847 1074.02C686.541 1073.04 689.518 1074.43 690.497 1077.12Z" fill="white" fill-opacity="0.1"/>
<path fill-rule="evenodd" clip-rule="evenodd" d="M671.119 1084.57C668.25 1076.68 672.318 1067.96 680.205 1065.09C688.093 1062.22 696.812 1066.29 699.681 1074.18C702.549 1082.07 698.481 1090.78 690.594 1093.65C682.707 1096.52 673.987 1092.45 671.119 1084.57ZM682.232 1070.66C677.423 1072.41 674.942 1077.73 676.692 1082.54C678.441 1087.35 683.757 1089.83 688.567 1088.08C693.376 1086.33 695.857 1081.01 694.108 1076.21C692.358 1071.4 687.042 1068.92 682.232 1070.66Z" fill="white" fill-opacity="0.1"/>
<path d="M723.299 1006.82C725.992 1005.84 727.381 1002.87 726.402 1000.17C725.422 997.479 722.445 996.09 719.752 997.069C717.058 998.049 715.669 1001.03 716.649 1003.72C717.628 1006.41 720.606 1007.8 723.299 1006.82Z" fill="white" fill-opacity="0.1"/>
<path fill-rule="evenodd" clip-rule="evenodd" d="M716.109 988.14C708.222 991.009 704.154 999.728 707.023 1007.62C709.891 1015.5 718.611 1019.57 726.498 1016.7C734.385 1013.83 738.453 1005.11 735.585 997.227C732.716 989.34 723.997 985.271 716.109 988.14ZM712.596 1005.59C710.846 1000.78 713.327 995.463 718.136 993.713C722.946 991.964 728.262 994.444 730.012 999.254C731.761 1004.06 729.28 1009.38 724.471 1011.13C719.661 1012.88 714.345 1010.4 712.596 1005.59Z" fill="white" fill-opacity="0.1"/>
<path fill-rule="evenodd" clip-rule="evenodd" d="M742.808 1051.79C744.627 1056.79 742.047 1062.32 737.046 1064.14C732.044 1065.96 726.515 1063.38 724.695 1058.37C722.876 1053.37 725.456 1047.84 730.458 1046.02C735.46 1044.21 740.989 1046.78 742.808 1051.79ZM730.965 1056.09C731.525 1057.63 733.226 1058.43 734.765 1057.87C736.304 1057.31 737.098 1055.61 736.538 1054.07C735.978 1052.53 734.277 1051.73 732.738 1052.29C731.199 1052.85 730.405 1054.56 730.965 1056.09Z" fill="white" fill-opacity="0.1"/>
<path d="M670.799 1042.48C669.068 1043.11 668.174 1045.03 668.804 1046.76C669.434 1048.49 671.348 1049.38 673.079 1048.75L681.787 1045.58L685.208 1054.99C685.837 1056.72 687.752 1057.61 689.483 1056.98C691.214 1056.35 692.107 1054.44 691.477 1052.71L688.057 1043.3L696.765 1040.14C698.496 1039.51 699.389 1037.59 698.759 1035.86C698.13 1034.13 696.215 1033.24 694.484 1033.87L670.799 1042.48Z" fill="white" fill-opacity="0.1"/>
<path d="M731.03 1075.79C730.33 1073.87 731.323 1071.74 733.246 1071.04L745.089 1066.73C749.321 1065.19 751.504 1060.51 749.965 1056.28L745.277 1043.39C744.648 1041.66 745.541 1039.75 747.272 1039.12C749.003 1038.49 750.917 1039.38 751.547 1041.11L756.234 1054C759.173 1062.08 755.006 1071.01 746.926 1073.95L735.78 1078.01C733.857 1078.71 731.73 1077.71 731.03 1075.79Z" fill="white" fill-opacity="0.1"/>
<path d="M664.846 1047.8C664.146 1045.88 662.019 1044.89 660.096 1045.59C658.172 1046.29 657.18 1048.41 657.879 1050.34L660.16 1056.61C661.979 1061.61 667.508 1064.19 672.51 1062.37L678.083 1060.34C680.006 1059.64 680.999 1057.51 680.299 1055.59C679.6 1053.67 677.473 1052.67 675.549 1053.37L671.369 1054.89C669.446 1055.59 667.319 1054.6 666.619 1052.68L664.846 1047.8Z" fill="white" fill-opacity="0.1"/>
<path d="M687.264 1027.03C686.564 1025.1 687.557 1022.98 689.48 1022.28L694.356 1020.5C696.28 1019.8 697.272 1017.68 696.573 1015.75L695.052 1011.57C694.353 1009.65 695.345 1007.52 697.269 1006.82C699.192 1006.13 701.319 1007.12 702.019 1009.04L704.046 1014.61C705.865 1019.62 703.285 1025.14 698.283 1026.96L692.014 1029.24C690.09 1029.94 687.963 1028.95 687.264 1027.03Z" fill="white" fill-opacity="0.1"/>
<path d="M706.685 1068.87C708.35 1068.26 710.19 1069.12 710.795 1070.79L712.74 1076.13C713.299 1077.67 714.953 1078.48 716.432 1077.94C717.912 1077.41 718.658 1075.72 718.098 1074.18L711.593 1056.3C710.987 1054.63 711.846 1052.79 713.511 1052.19C715.176 1051.58 717.016 1052.44 717.622 1054.11L723.873 1071.29C725.693 1076.3 723.269 1081.77 718.459 1083.52C713.65 1085.27 708.277 1082.63 706.457 1077.63L704.767 1072.98C704.161 1071.32 705.02 1069.47 706.685 1068.87Z" fill="white" fill-opacity="0.1"/>
<path d="M711.837 1038.2C713.404 1042.51 711.283 1047.26 707.089 1048.99L707.087 1049L707.087 1049C707.088 1049 707.087 1049 707.085 1049L706.392 1049.26C704.853 1049.82 704.059 1051.52 704.619 1053.06L706.392 1057.93C707.092 1059.86 706.099 1061.98 704.176 1062.68C702.253 1063.38 700.125 1062.39 699.426 1060.47L697.526 1055.24C695.959 1050.94 698.08 1046.19 702.274 1044.45L702.276 1044.45L702.276 1044.45C702.275 1044.44 702.276 1044.44 702.278 1044.44L702.971 1044.19C704.51 1043.63 705.304 1041.93 704.744 1040.39L702.971 1035.51C702.271 1033.59 703.264 1031.46 705.187 1030.76C707.11 1030.06 709.237 1031.06 709.937 1032.98L711.837 1038.2Z" fill="white" fill-opacity="0.1"/>
<path d="M716.334 1035.38C714.655 1030.77 717.036 1025.66 721.653 1023.98L722.993 1023.5C727.255 1021.95 732.071 1024.43 733.75 1029.05C733.75 1029.05 734.383 1030.79 734.985 1031.36C735.69 1032.03 736.245 1032.09 737.106 1031.77C738.645 1031.21 739.439 1029.51 738.88 1027.97L736.726 1022.05C736.096 1020.32 736.989 1018.41 738.72 1017.78C740.452 1017.15 742.366 1018.04 742.995 1019.77L745.403 1026.39C747.082 1031.01 744.7 1036.11 740.084 1037.79L738.744 1038.28C734.482 1039.83 729.666 1037.34 727.987 1032.72L727.86 1032.38C726.847 1029.59 725.491 1029.69 724.63 1030C723.091 1030.56 722.297 1032.26 722.857 1033.8L725.011 1039.72C725.64 1041.45 724.747 1043.37 723.016 1044C721.285 1044.63 719.371 1043.73 718.741 1042L716.334 1035.38Z" fill="white" fill-opacity="0.1"/>
<path fill-rule="evenodd" clip-rule="evenodd" d="M1209.56 134.984L1232.03 181.659L1232.09 181.713C1245.86 174.486 1262.51 172.862 1278.28 178.596C1307.98 189.402 1323.31 222.245 1312.5 251.953C1312.41 252.195 1312.33 252.436 1312.23 252.676L1312.29 252.721C1311.83 253.847 1311.4 254.985 1310.98 256.134C1289.93 314.012 1319.78 377.996 1377.66 399.047C1435.54 420.098 1499.52 390.245 1520.58 332.367C1541.63 274.489 1511.77 210.505 1453.9 189.454C1421.61 177.71 1387.42 181.809 1359.84 197.777C1354.17 179.942 1341.48 159.163 1316.03 142.467C1272.01 113.578 1226.71 125.441 1209.56 134.984ZM1360.04 273.976C1348.84 304.761 1364.72 338.796 1395.5 349.993C1426.29 361.191 1460.32 345.311 1471.52 314.525C1482.72 283.739 1466.84 249.705 1436.05 238.508C1405.27 227.31 1371.23 243.19 1360.04 273.976Z" fill="white" fill-opacity="0.1"/>
<path d="M1250.64 422.907L1309.94 259.859C1320.59 230.594 1355.23 174.396 1432.08 184.36C1508.93 194.323 1525.75 269.554 1526.74 281.59L1474.72 286.654L1474.62 286.657C1471.85 265.381 1457.61 246.348 1436.05 238.508C1405.27 227.311 1371.23 243.19 1360.04 273.976C1358.48 278.253 1357.45 282.592 1356.9 286.924L1315.2 401.577C1310.13 414.668 1290.1 437.261 1250.64 422.907Z" fill="white" fill-opacity="0.1"/>
<path d="M1421.3 263.44C1419.77 262.88 1418.97 261.178 1419.53 259.639C1420.09 258.1 1421.79 257.306 1423.33 257.866L1428.35 259.691C1432.35 261.146 1434.42 265.571 1432.96 269.573L1431.34 274.032C1430.78 275.571 1429.08 276.366 1427.54 275.806C1426 275.246 1425.2 273.544 1425.76 272.005L1426.98 268.66C1427.54 267.121 1426.75 265.419 1425.21 264.859L1421.3 263.44Z" fill="white" fill-opacity="0.1"/>
<path fill-rule="evenodd" clip-rule="evenodd" d="M1457.44 283.841C1459.73 277.529 1456.48 270.553 1450.16 268.257C1443.85 265.962 1436.88 269.217 1434.58 275.528C1432.29 281.839 1435.54 288.816 1441.85 291.112C1448.16 293.407 1455.14 290.152 1457.44 283.841ZM1448.54 272.716C1452.39 274.116 1454.38 278.37 1452.98 282.219C1451.58 286.067 1447.32 288.052 1443.47 286.652C1439.63 285.252 1437.64 280.998 1439.04 277.15C1440.44 273.301 1444.69 271.317 1448.54 272.716Z" fill="white" fill-opacity="0.1"/>
<path d="M1425.51 323.036C1424.72 325.191 1425.83 327.574 1427.99 328.358C1430.14 329.141 1432.53 328.03 1433.31 325.875C1434.09 323.72 1432.98 321.337 1430.83 320.554C1428.67 319.77 1426.29 320.881 1425.51 323.036Z" fill="white" fill-opacity="0.1"/>
<path fill-rule="evenodd" clip-rule="evenodd" d="M1441.01 328.992C1443.31 322.681 1440.05 315.704 1433.74 313.409C1427.43 311.113 1420.45 314.369 1418.16 320.68C1415.86 326.991 1419.12 333.968 1425.43 336.263C1431.74 338.559 1438.72 335.304 1441.01 328.992ZM1432.12 317.868C1435.97 319.268 1437.95 323.522 1436.55 327.37C1435.15 331.219 1430.9 333.204 1427.05 331.804C1423.2 330.404 1421.22 326.15 1422.62 322.302C1424.02 318.453 1428.27 316.469 1432.12 317.868Z" fill="white" fill-opacity="0.1"/>
<path d="M1399.26 266.783C1397.1 265.999 1395.99 263.617 1396.78 261.462C1397.56 259.307 1399.94 258.195 1402.1 258.979C1404.25 259.763 1405.36 262.145 1404.58 264.3C1403.8 266.455 1401.41 267.567 1399.26 266.783Z" fill="white" fill-opacity="0.1"/>
<path fill-rule="evenodd" clip-rule="evenodd" d="M1405.01 251.834C1411.32 254.13 1414.58 261.107 1412.28 267.418C1409.99 273.729 1403.01 276.984 1396.7 274.689C1390.39 272.393 1387.13 265.416 1389.43 259.105C1391.72 252.794 1398.7 249.539 1405.01 251.834ZM1407.82 265.796C1409.22 261.947 1407.24 257.693 1403.39 256.294C1399.54 254.894 1395.29 256.879 1393.89 260.727C1392.49 264.576 1394.47 268.83 1398.32 270.229C1402.17 271.629 1406.42 269.644 1407.82 265.796Z" fill="white" fill-opacity="0.1"/>
<path fill-rule="evenodd" clip-rule="evenodd" d="M1383.65 302.763C1382.19 306.765 1384.26 311.189 1388.26 312.645C1392.26 314.101 1396.69 312.037 1398.14 308.034C1399.6 304.032 1397.53 299.608 1393.53 298.152C1389.53 296.696 1385.1 298.76 1383.65 302.763ZM1393.13 306.209C1392.68 307.441 1391.32 308.076 1390.08 307.628C1388.85 307.18 1388.22 305.819 1388.67 304.587C1389.11 303.356 1390.48 302.721 1391.71 303.169C1392.94 303.617 1393.57 304.978 1393.13 306.209Z" fill="white" fill-opacity="0.1"/>
<path d="M1441.27 295.317C1442.65 295.821 1443.37 297.353 1442.86 298.738C1442.36 300.123 1440.83 300.838 1439.44 300.334L1432.48 297.8L1429.74 305.325C1429.24 306.71 1427.7 307.425 1426.32 306.921C1424.93 306.417 1424.22 304.885 1424.72 303.5L1427.46 295.975L1420.49 293.441C1419.11 292.937 1418.39 291.405 1418.9 290.02C1419.4 288.635 1420.93 287.92 1422.32 288.424L1441.27 295.317Z" fill="white" fill-opacity="0.1"/>
<path d="M1393.07 321.969C1393.63 320.43 1392.84 318.728 1391.3 318.169L1381.82 314.722C1378.44 313.49 1376.69 309.746 1377.92 306.36L1381.67 296.048C1382.18 294.662 1381.46 293.131 1380.08 292.627C1378.69 292.123 1377.16 292.838 1376.66 294.223L1372.91 304.535C1370.55 311 1373.89 318.147 1380.35 320.499L1389.27 323.743C1390.81 324.303 1392.51 323.509 1393.07 321.969Z" fill="white" fill-opacity="0.1"/>
<path d="M1446.03 299.574C1446.59 298.035 1448.29 297.241 1449.83 297.8C1451.37 298.36 1452.17 300.062 1451.61 301.601L1449.78 306.618C1448.33 310.621 1443.9 312.685 1439.9 311.229L1435.44 309.607C1433.9 309.047 1433.11 307.345 1433.67 305.806C1434.23 304.267 1435.93 303.473 1437.47 304.033L1440.81 305.249C1442.35 305.809 1444.05 305.015 1444.61 303.476L1446.03 299.574Z" fill="white" fill-opacity="0.1"/>
<path d="M1428.09 282.952C1428.65 281.413 1427.86 279.711 1426.32 279.151L1422.42 277.731C1420.88 277.172 1420.09 275.47 1420.65 273.931L1421.86 270.586C1422.42 269.047 1421.63 267.345 1420.09 266.785C1418.55 266.225 1416.85 267.02 1416.29 268.559L1414.67 273.018C1413.21 277.02 1415.27 281.445 1419.28 282.9L1424.29 284.725C1425.83 285.285 1427.53 284.491 1428.09 282.952Z" fill="white" fill-opacity="0.1"/>
<path d="M1412.55 316.432C1411.22 315.947 1409.75 316.634 1409.26 317.967L1407.71 322.244C1407.26 323.475 1405.94 324.124 1404.75 323.694C1403.57 323.263 1402.97 321.916 1403.42 320.684L1408.63 306.373C1409.11 305.041 1408.42 303.569 1407.09 303.084C1405.76 302.599 1404.29 303.286 1403.8 304.619L1398.8 318.372C1397.34 322.374 1399.28 326.753 1403.13 328.153C1406.98 329.553 1411.28 327.443 1412.74 323.441L1414.09 319.721C1414.57 318.389 1413.89 316.916 1412.55 316.432Z" fill="white" fill-opacity="0.1"/>
<path d="M1408.43 291.894C1407.18 295.34 1408.87 299.141 1412.23 300.528L1412.23 300.53L1412.23 300.532C1412.23 300.534 1412.23 300.535 1412.23 300.536L1412.79 300.738C1414.02 301.186 1414.66 302.547 1414.21 303.779L1412.79 307.681C1412.23 309.22 1413.02 310.922 1414.56 311.481C1416.1 312.041 1417.8 311.247 1418.36 309.708L1419.88 305.527C1421.14 302.081 1419.44 298.281 1416.08 296.894L1416.08 296.892L1416.08 296.889C1416.08 296.888 1416.08 296.886 1416.08 296.886L1415.53 296.684C1414.29 296.236 1413.66 294.875 1414.11 293.643L1415.53 289.741C1416.09 288.202 1415.29 286.5 1413.75 285.94C1412.21 285.381 1410.51 286.175 1409.95 287.714L1408.43 291.894Z" fill="white" fill-opacity="0.1"/>
<path d="M1404.83 289.638C1406.18 285.944 1404.27 281.86 1400.58 280.516L1399.5 280.126C1396.09 278.886 1392.24 280.876 1390.9 284.57C1390.9 284.57 1390.39 285.963 1389.91 286.419C1389.34 286.954 1388.9 286.999 1388.21 286.749C1386.98 286.301 1386.34 284.939 1386.79 283.708L1388.52 278.97C1389.02 277.585 1388.3 276.053 1386.92 275.549C1385.53 275.045 1384 275.76 1383.5 277.145L1381.57 282.441C1380.23 286.135 1382.13 290.219 1385.83 291.563L1386.9 291.953C1390.31 293.193 1394.16 291.203 1395.51 287.509L1395.61 287.231C1396.42 285.001 1397.51 285.08 1398.19 285.33C1399.43 285.778 1400.06 287.14 1399.61 288.371L1397.89 293.109C1397.39 294.494 1398.1 296.026 1399.49 296.53C1400.87 297.034 1402.4 296.319 1402.91 294.934L1404.83 289.638Z" fill="white" fill-opacity="0.1"/>
<path fill-rule="evenodd" clip-rule="evenodd" d="M1347.76 576.342L1292.97 594.654L1292.88 594.648C1287.96 578.019 1276.31 563.444 1259.47 555.294C1227.74 539.937 1189.56 553.213 1174.21 584.947C1174.08 585.205 1173.96 585.464 1173.84 585.723L1173.76 585.718C1173.21 586.954 1172.64 588.186 1172.05 589.413C1142.13 651.237 1067.75 677.101 1005.93 647.181C944.104 617.262 918.24 542.889 948.16 481.065C978.079 419.241 1052.45 393.377 1114.28 423.296C1148.77 439.987 1172.06 470.513 1180.73 504.976C1199.41 495.653 1225.88 489.647 1259.02 497.016C1316.34 509.767 1342.07 555.213 1347.76 576.342ZM1119.65 564.055C1103.73 596.94 1064.17 610.698 1031.29 594.783C998.401 578.868 984.644 539.308 1000.56 506.423C1016.47 473.537 1056.03 459.78 1088.92 475.695C1121.8 491.61 1135.56 531.169 1119.65 564.055Z" fill="white" fill-opacity="0.1"/>
<path d="M1085.59 767.306L1169.87 593.14C1185 561.88 1203.02 490.493 1135.31 436.783C1067.6 383.072 994.369 428.102 983.977 436.668L1020.36 482.203L1020.44 482.284C1039.6 467.956 1065.89 464.554 1088.92 475.696C1121.8 491.61 1135.56 531.171 1119.65 564.056C1117.44 568.624 1114.77 572.824 1111.73 576.625L1052.46 699.096C1045.94 713.332 1043.43 746.905 1085.59 767.306Z" fill="white" fill-opacity="0.1"/>
<path d="M1080.45 506.87C1082.09 507.666 1084.07 506.978 1084.86 505.334C1085.66 503.69 1084.97 501.711 1083.33 500.916L1077.97 498.322C1073.69 496.253 1068.55 498.042 1066.48 502.317L1064.18 507.08C1063.38 508.724 1064.07 510.703 1065.71 511.498C1067.36 512.294 1069.33 511.606 1070.13 509.962L1071.86 506.389C1072.65 504.745 1074.63 504.057 1076.28 504.853L1080.45 506.87Z" fill="white" fill-opacity="0.1"/>
<path d="M1052.86 501.605C1051.75 503.907 1048.98 504.87 1046.68 503.756C1044.38 502.642 1043.41 499.873 1044.53 497.571C1045.64 495.269 1048.41 494.306 1050.71 495.42C1053.01 496.534 1053.98 499.303 1052.86 501.605Z" fill="white" fill-opacity="0.1"/>
<path fill-rule="evenodd" clip-rule="evenodd" d="M1036.05 493.835C1039.31 487.094 1047.42 484.273 1054.16 487.536C1060.9 490.798 1063.72 498.908 1060.46 505.65C1057.2 512.391 1049.09 515.211 1042.35 511.949C1035.6 508.686 1032.78 500.577 1036.05 493.835ZM1051.85 492.299C1047.74 490.31 1042.8 492.03 1040.81 496.14C1038.82 500.251 1040.54 505.196 1044.65 507.185C1048.76 509.175 1053.71 507.455 1055.7 503.344C1057.69 499.234 1055.97 494.289 1051.85 492.299Z" fill="white" fill-opacity="0.1"/>
<path d="M1029.52 549.836C1028.41 552.138 1025.64 553.101 1023.34 551.987C1021.03 550.873 1020.07 548.104 1021.19 545.802C1022.3 543.5 1025.07 542.537 1027.37 543.651C1029.67 544.765 1030.64 547.534 1029.52 549.836Z" fill="white" fill-opacity="0.1"/>
<path fill-rule="evenodd" clip-rule="evenodd" d="M1012.71 542.066C1015.97 535.325 1024.08 532.505 1030.82 535.767C1037.56 539.03 1040.38 547.139 1037.12 553.881C1033.86 560.622 1025.75 563.443 1019 560.18C1012.26 556.918 1009.44 548.808 1012.71 542.066ZM1028.51 540.531C1024.4 538.541 1019.46 540.261 1017.47 544.372C1015.48 548.483 1017.2 553.427 1021.31 555.417C1025.42 557.406 1030.37 555.687 1032.35 551.576C1034.34 547.465 1032.62 542.52 1028.51 540.531Z" fill="white" fill-opacity="0.1"/>
<path d="M1094.91 527.098C1097.21 528.212 1099.98 527.249 1101.09 524.947C1102.21 522.645 1101.24 519.876 1098.94 518.762C1096.64 517.648 1093.87 518.611 1092.76 520.913C1091.64 523.215 1092.61 525.984 1094.91 527.098Z" fill="white" fill-opacity="0.1"/>
<path fill-rule="evenodd" clip-rule="evenodd" d="M1102.39 510.877C1095.65 507.614 1087.54 510.434 1084.28 517.176C1081.01 523.918 1083.83 532.027 1090.58 535.29C1097.32 538.552 1105.43 535.732 1108.69 528.991C1111.95 522.249 1109.13 514.139 1102.39 510.877ZM1089.04 519.481C1091.03 515.37 1095.97 513.651 1100.09 515.64C1104.2 517.63 1105.92 522.574 1103.93 526.685C1101.94 530.796 1096.99 532.516 1092.88 530.526C1088.77 528.537 1087.05 523.592 1089.04 519.481Z" fill="white" fill-opacity="0.1"/>
<path fill-rule="evenodd" clip-rule="evenodd" d="M1078.27 567.549C1076.2 571.824 1071.06 573.612 1066.78 571.543C1062.51 569.474 1060.72 564.332 1062.79 560.057C1064.86 555.781 1070 553.993 1074.28 556.062C1078.55 558.131 1080.34 563.274 1078.27 567.549ZM1068.15 562.65C1067.51 563.965 1068.06 565.548 1069.38 566.184C1070.69 566.821 1072.28 566.271 1072.91 564.955C1073.55 563.64 1073 562.057 1071.68 561.421C1070.37 560.784 1068.79 561.335 1068.15 562.65Z" fill="white" fill-opacity="0.1"/>
<path d="M1039.44 515.684C1037.96 514.968 1036.18 515.588 1035.46 517.067C1034.74 518.547 1035.36 520.327 1036.84 521.043L1044.29 524.645L1040.39 532.684C1039.68 534.163 1040.3 535.944 1041.78 536.66C1043.26 537.376 1045.04 536.757 1045.75 535.277L1049.64 527.239L1057.09 530.841C1058.57 531.557 1060.35 530.938 1061.06 529.458C1061.78 527.978 1061.16 526.198 1059.68 525.482L1039.44 515.684Z" fill="white" fill-opacity="0.1"/>
<path d="M1055.59 574.943C1056.38 573.299 1058.36 572.611 1060 573.407L1070.13 578.306C1073.74 580.056 1078.1 578.543 1079.85 574.926L1085.18 563.91C1085.89 562.43 1087.67 561.811 1089.15 562.527C1090.63 563.243 1091.25 565.024 1090.54 566.503L1085.21 577.519C1081.86 584.425 1073.56 587.314 1066.65 583.972L1057.12 579.361C1055.48 578.566 1054.79 576.587 1055.59 574.943Z" fill="white" fill-opacity="0.1"/>
<path d="M1032.33 515.183C1033.12 513.539 1032.44 511.561 1030.79 510.766C1029.15 509.97 1027.17 510.658 1026.37 512.302L1023.78 517.661C1021.71 521.936 1023.5 527.079 1027.78 529.148L1032.54 531.453C1034.18 532.249 1036.16 531.561 1036.96 529.917C1037.75 528.273 1037.06 526.294 1035.42 525.499L1031.85 523.77C1030.2 522.974 1029.52 520.996 1030.31 519.352L1032.33 515.183Z" fill="white" fill-opacity="0.1"/>
<path d="M1059.57 516.608C1060.36 514.964 1062.34 514.276 1063.98 515.071L1068.15 517.088C1069.8 517.884 1071.77 517.196 1072.57 515.552L1074.3 511.979C1075.09 510.335 1077.07 509.647 1078.72 510.443C1080.36 511.239 1081.05 513.217 1080.25 514.861L1077.95 519.625C1075.88 523.9 1070.74 525.688 1066.46 523.619L1061.1 521.026C1059.46 520.23 1058.77 518.252 1059.57 516.608Z" fill="white" fill-opacity="0.1"/>
<path d="M1044.87 555.06C1046.29 555.749 1046.89 557.46 1046.2 558.883L1043.99 563.452C1043.35 564.767 1043.86 566.33 1045.13 566.942C1046.39 567.554 1047.93 566.984 1048.57 565.669L1055.97 550.382C1056.66 548.959 1058.37 548.364 1059.79 549.052C1061.21 549.741 1061.81 551.453 1061.12 552.876L1054.01 567.567C1051.94 571.842 1046.93 573.695 1042.82 571.706C1038.71 569.716 1037.06 564.638 1039.13 560.363L1041.05 556.39C1041.74 554.966 1043.45 554.371 1044.87 555.06Z" fill="white" fill-opacity="0.1"/>
<path d="M1067.7 539.283C1065.92 542.964 1061.56 544.561 1057.84 542.956L1057.84 542.956L1057.84 542.958C1057.84 542.96 1057.83 542.961 1057.83 542.96L1057.24 542.673C1055.92 542.036 1054.34 542.587 1053.71 543.902L1051.69 548.07C1050.89 549.714 1048.91 550.402 1047.27 549.607C1045.63 548.811 1044.94 546.833 1045.73 545.189L1047.89 540.723C1049.68 537.042 1054.03 535.445 1057.75 537.05L1057.75 537.05L1057.76 537.048C1057.76 537.046 1057.76 537.046 1057.76 537.046L1058.35 537.333C1059.67 537.97 1061.25 537.419 1061.89 536.104L1063.91 531.936C1064.7 530.292 1066.68 529.604 1068.32 530.399C1069.97 531.195 1070.66 533.173 1069.86 534.817L1067.7 539.283Z" fill="white" fill-opacity="0.1"/>
<path d="M1072.3 540.407C1074.21 536.461 1078.96 534.81 1082.9 536.719L1084.05 537.274C1087.69 539.036 1089.1 543.665 1087.19 547.611C1087.19 547.611 1086.47 549.099 1086.47 549.839C1086.49 550.706 1086.8 551.096 1087.53 551.452C1088.85 552.089 1090.43 551.539 1091.07 550.223L1093.51 545.162C1094.23 543.682 1096.01 543.063 1097.49 543.779C1098.97 544.495 1099.59 546.276 1098.87 547.755L1096.14 553.412C1094.23 557.358 1089.48 559.009 1085.53 557.1L1084.39 556.545C1080.75 554.782 1079.34 550.154 1081.25 546.208L1081.39 545.91C1082.55 543.529 1081.64 542.723 1080.9 542.367C1079.59 541.73 1078.01 542.28 1077.37 543.596L1074.92 548.657C1074.21 550.137 1072.42 550.756 1070.94 550.04C1069.47 549.324 1068.85 547.543 1069.56 546.063L1072.3 540.407Z" fill="white" fill-opacity="0.1"/>
<path fill-rule="evenodd" clip-rule="evenodd" d="M408.751 552.653L365.239 567.195L365.167 567.19C361.257 553.985 352.012 542.411 338.639 535.939C313.439 523.743 283.123 534.286 270.927 559.486C270.828 559.692 270.73 559.897 270.634 560.103L270.573 560.098C270.137 561.08 269.683 562.058 269.211 563.033C245.451 612.128 186.391 632.667 137.296 608.908C88.2 585.148 67.6613 526.088 91.4208 476.992C115.18 427.897 174.24 407.358 223.336 431.117C250.725 444.372 269.226 468.613 276.107 495.981C290.938 488.577 311.966 483.808 338.276 489.66C383.798 499.785 404.226 535.874 408.751 552.653ZM227.6 542.896C214.963 569.01 183.548 579.935 157.433 567.297C131.318 554.659 120.393 523.244 133.031 497.129C145.669 471.015 177.084 460.09 203.199 472.728C229.314 485.366 240.239 516.781 227.6 542.896Z" fill="white" fill-opacity="0.1"/>
<path d="M200.554 704.3L267.487 565.993C279.501 541.168 293.804 484.479 240.038 441.827C186.272 399.175 128.116 434.934 119.863 441.736L148.759 477.897L148.817 477.961C164.034 466.582 184.915 463.881 203.199 472.729C229.313 485.367 240.238 516.782 227.6 542.896C225.845 546.524 223.727 549.859 221.311 552.878L174.245 650.133C169.065 661.439 167.076 688.099 200.554 704.3Z" fill="white" fill-opacity="0.1"/>
<path d="M196.47 497.485C197.776 498.116 199.347 497.57 199.978 496.265C200.61 494.959 200.064 493.388 198.758 492.756L194.503 490.697C191.108 489.054 187.024 490.474 185.381 493.869L183.55 497.652C182.919 498.957 183.465 500.528 184.77 501.16C186.076 501.792 187.647 501.246 188.279 499.94L189.652 497.103C190.284 495.797 191.855 495.251 193.16 495.883L196.47 497.485Z" fill="white" fill-opacity="0.1"/>
<path d="M174.566 493.304C173.682 495.132 171.483 495.896 169.655 495.012C167.827 494.127 167.062 491.928 167.947 490.1C168.831 488.272 171.03 487.507 172.858 488.392C174.686 489.277 175.451 491.476 174.566 493.304Z" fill="white" fill-opacity="0.1"/>
<path fill-rule="evenodd" clip-rule="evenodd" d="M161.212 487.133C163.803 481.78 170.243 479.54 175.597 482.131C180.95 484.722 183.19 491.162 180.599 496.515C178.008 501.869 171.568 504.108 166.215 501.518C160.861 498.927 158.622 492.487 161.212 487.133ZM173.766 485.914C170.502 484.334 166.575 485.699 164.995 488.964C163.415 492.228 164.781 496.155 168.045 497.735C171.31 499.315 175.236 497.949 176.816 494.685C178.396 491.42 177.031 487.494 173.766 485.914Z" fill="white" fill-opacity="0.1"/>
<path d="M156.031 531.604C155.146 533.432 152.947 534.197 151.119 533.312C149.291 532.428 148.526 530.229 149.411 528.401C150.296 526.573 152.495 525.808 154.323 526.693C156.151 527.577 156.916 529.776 156.031 531.604Z" fill="white" fill-opacity="0.1"/>
<path fill-rule="evenodd" clip-rule="evenodd" d="M142.677 525.434C145.268 520.081 151.708 517.841 157.061 520.432C162.415 523.023 164.654 529.463 162.064 534.816C159.473 540.17 153.033 542.409 147.679 539.818C142.326 537.228 140.086 530.788 142.677 525.434ZM155.231 524.215C151.966 522.635 148.04 524 146.46 527.265C144.88 530.529 146.245 534.456 149.51 536.036C152.774 537.616 156.701 536.25 158.281 532.985C159.861 529.721 158.495 525.794 155.231 524.215Z" fill="white" fill-opacity="0.1"/>
<path d="M207.955 513.547C209.783 514.432 211.982 513.667 212.867 511.839C213.752 510.011 212.987 507.812 211.159 506.927C209.331 506.043 207.132 506.808 206.247 508.636C205.363 510.464 206.127 512.663 207.955 513.547Z" fill="white" fill-opacity="0.1"/>
<path fill-rule="evenodd" clip-rule="evenodd" d="M213.897 500.666C208.544 498.076 202.104 500.315 199.513 505.669C196.922 511.022 199.162 517.462 204.515 520.053C209.869 522.644 216.309 520.404 218.9 515.051C221.491 509.697 219.251 503.257 213.897 500.666ZM203.296 507.499C204.876 504.235 208.802 502.869 212.067 504.449C215.331 506.029 216.697 509.956 215.117 513.22C213.537 516.485 209.61 517.85 206.346 516.27C203.081 514.69 201.716 510.764 203.296 507.499Z" fill="white" fill-opacity="0.1"/>
<path fill-rule="evenodd" clip-rule="evenodd" d="M194.744 545.671C193.101 549.066 189.017 550.486 185.622 548.843C182.227 547.2 180.807 543.116 182.45 539.721C184.093 536.326 188.176 534.906 191.571 536.549C194.966 538.192 196.387 542.276 194.744 545.671ZM186.705 541.781C186.2 542.825 186.637 544.082 187.681 544.587C188.726 545.093 189.983 544.656 190.488 543.611C190.994 542.567 190.556 541.31 189.512 540.805C188.467 540.299 187.211 540.736 186.705 541.781Z" fill="white" fill-opacity="0.1"/>
<path d="M163.904 504.484C162.729 503.915 161.315 504.407 160.746 505.582C160.177 506.757 160.669 508.171 161.844 508.74L167.755 511.6L164.665 517.984C164.097 519.159 164.588 520.572 165.764 521.141C166.939 521.71 168.352 521.218 168.921 520.043L172.01 513.66L177.921 516.52C179.096 517.089 180.51 516.597 181.078 515.422C181.647 514.247 181.155 512.833 179.98 512.264L163.904 504.484Z" fill="white" fill-opacity="0.1"/>
<path d="M176.729 551.542C177.361 550.237 178.932 549.69 180.238 550.322L188.276 554.212C191.148 555.603 194.604 554.401 195.994 551.528L200.228 542.781C200.796 541.606 202.21 541.114 203.385 541.682C204.56 542.251 205.052 543.665 204.483 544.84L200.25 553.588C197.596 559.072 190.999 561.366 185.515 558.712L177.949 555.051C176.644 554.419 176.097 552.848 176.729 551.542Z" fill="white" fill-opacity="0.1"/>
<path d="M158.26 504.086C158.892 502.781 158.345 501.21 157.04 500.578C155.734 499.946 154.163 500.493 153.532 501.798L151.472 506.054C149.829 509.449 151.249 513.532 154.644 515.175L158.427 517.006C159.733 517.638 161.304 517.092 161.935 515.786C162.567 514.481 162.021 512.909 160.715 512.278L157.878 510.905C156.573 510.273 156.026 508.702 156.658 507.396L158.26 504.086Z" fill="white" fill-opacity="0.1"/>
<path d="M179.889 505.217C180.521 503.912 182.092 503.365 183.397 503.997L186.707 505.599C188.013 506.231 189.584 505.685 190.216 504.379L191.589 501.542C192.22 500.236 193.791 499.69 195.097 500.322C196.402 500.954 196.949 502.525 196.317 503.83L194.486 507.613C192.843 511.008 188.76 512.428 185.365 510.785L181.109 508.726C179.803 508.094 179.257 506.523 179.889 505.217Z" fill="white" fill-opacity="0.1"/>
<path d="M168.221 535.753C169.351 536.3 169.823 537.659 169.276 538.789L167.521 542.417C167.015 543.462 167.42 544.703 168.424 545.189C169.428 545.675 170.652 545.222 171.158 544.177L177.033 532.038C177.579 530.908 178.939 530.435 180.069 530.982C181.199 531.529 181.671 532.888 181.125 534.018L175.479 545.685C173.836 549.08 169.858 550.551 166.593 548.971C163.329 547.392 162.014 543.359 163.657 539.964L165.184 536.809C165.731 535.679 167.09 535.206 168.221 535.753Z" fill="white" fill-opacity="0.1"/>
<path d="M186.348 523.224C184.933 526.147 181.473 527.416 178.52 526.141L178.518 526.141L178.516 526.142C178.515 526.144 178.514 526.144 178.513 526.144L178.042 525.916C176.998 525.41 175.741 525.847 175.235 526.892L173.634 530.202C173.002 531.507 171.431 532.054 170.125 531.422C168.82 530.79 168.273 529.219 168.905 527.914L170.621 524.367C172.036 521.444 175.497 520.176 178.449 521.451L178.451 521.45L178.453 521.449C178.454 521.448 178.455 521.447 178.457 521.448L178.927 521.676C179.972 522.181 181.228 521.744 181.734 520.699L183.336 517.39C183.967 516.084 185.538 515.538 186.844 516.169C188.15 516.801 188.696 518.372 188.064 519.678L186.348 523.224Z" fill="white" fill-opacity="0.1"/>
<path d="M190.001 524.117C191.518 520.983 195.288 519.672 198.422 521.189L199.331 521.629C202.224 523.029 203.339 526.704 201.823 529.838C201.823 529.838 201.25 531.02 201.258 531.607C201.267 532.295 201.513 532.605 202.097 532.888C203.141 533.394 204.398 532.957 204.904 531.912L206.849 527.893C207.417 526.718 208.831 526.226 210.006 526.795C211.181 527.364 211.673 528.777 211.104 529.953L208.93 534.445C207.414 537.578 203.644 538.889 200.51 537.373L199.601 536.933C196.708 535.533 195.593 531.857 197.109 528.724L197.224 528.487C198.139 526.596 197.419 525.956 196.835 525.673C195.79 525.168 194.534 525.605 194.028 526.649L192.083 530.668C191.514 531.843 190.101 532.335 188.926 531.766C187.751 531.198 187.259 529.784 187.828 528.609L190.001 524.117Z" fill="white" fill-opacity="0.1"/>
<path fill-rule="evenodd" clip-rule="evenodd" d="M628.751 164.653L585.239 179.195L585.167 179.19C581.257 165.985 572.012 154.41 558.639 147.939C533.439 135.743 503.123 146.286 490.927 171.486C490.828 171.691 490.73 171.897 490.634 172.102L490.573 172.098C490.137 173.08 489.683 174.058 489.211 175.032C465.451 224.128 406.391 244.667 357.296 220.907C308.2 197.148 287.661 138.088 311.421 88.9921C335.18 39.8966 394.241 19.3577 443.336 43.1172C470.725 56.3718 489.226 80.6125 496.107 107.98C510.939 100.577 531.966 95.8076 558.276 101.659C603.798 111.784 624.226 147.874 628.751 164.653ZM447.601 154.895C434.963 181.01 403.548 191.935 377.433 179.297C351.318 166.659 340.393 135.244 353.031 109.129C365.669 83.0144 397.084 72.0896 423.199 84.7277C449.314 97.3658 460.239 128.781 447.601 154.895Z" fill="white" fill-opacity="0.1"/>
<path d="M420.554 316.3L487.487 177.992C499.501 153.168 513.804 96.4791 460.038 53.827C406.272 11.1749 348.116 46.9334 339.863 53.7361L368.759 89.8963L368.817 89.9606C384.034 78.5822 404.915 75.8803 423.199 84.7285C449.313 97.3664 460.238 128.782 447.6 154.896C445.845 158.524 443.727 161.859 441.311 164.878L394.245 262.133C389.066 273.438 387.077 300.099 420.554 316.3Z" fill="white" fill-opacity="0.1"/>
<path d="M416.47 109.484C417.776 110.116 419.347 109.57 419.979 108.264C420.61 106.959 420.064 105.388 418.758 104.756L414.503 102.696C411.108 101.053 407.024 102.474 405.381 105.869L403.55 109.651C402.919 110.957 403.465 112.528 404.77 113.16C406.076 113.792 407.647 113.245 408.279 111.94L409.652 109.103C410.284 107.797 411.855 107.251 413.16 107.883L416.47 109.484Z" fill="white" fill-opacity="0.1"/>
<path d="M394.566 105.303C393.682 107.131 391.483 107.896 389.655 107.011C387.827 106.127 387.062 103.928 387.947 102.1C388.831 100.272 391.03 99.507 392.858 100.392C394.686 101.276 395.451 103.475 394.566 105.303Z" fill="white" fill-opacity="0.1"/>
<path fill-rule="evenodd" clip-rule="evenodd" d="M381.212 99.133C383.803 93.7795 390.243 91.5399 395.597 94.1307C400.95 96.7216 403.19 103.162 400.599 108.515C398.008 113.869 391.568 116.108 386.215 113.517C380.861 110.927 378.622 104.487 381.212 99.133ZM393.766 97.9135C390.502 96.3337 386.575 97.6992 384.995 100.964C383.415 104.228 384.781 108.155 388.045 109.735C391.31 111.314 395.236 109.949 396.816 106.684C398.396 103.42 397.031 99.4933 393.766 97.9135Z" fill="white" fill-opacity="0.1"/>
<path d="M376.031 143.604C375.146 145.432 372.947 146.197 371.119 145.312C369.291 144.428 368.527 142.229 369.411 140.4C370.296 138.572 372.495 137.808 374.323 138.692C376.151 139.577 376.916 141.776 376.031 143.604Z" fill="white" fill-opacity="0.1"/>
<path fill-rule="evenodd" clip-rule="evenodd" d="M362.677 137.434C365.268 132.08 371.708 129.841 377.061 132.432C382.415 135.022 384.654 141.462 382.064 146.816C379.473 152.169 373.033 154.409 367.679 151.818C362.326 149.227 360.086 142.787 362.677 137.434ZM375.231 136.214C371.966 134.634 368.04 136 366.46 139.264C364.88 142.529 366.245 146.456 369.51 148.035C372.774 149.615 376.701 148.25 378.281 144.985C379.861 141.721 378.495 137.794 375.231 136.214Z" fill="white" fill-opacity="0.1"/>
<path d="M427.956 125.547C429.784 126.432 431.983 125.667 432.867 123.839C433.752 122.011 432.987 119.812 431.159 118.927C429.331 118.043 427.132 118.807 426.247 120.635C425.363 122.463 426.128 124.662 427.956 125.547Z" fill="white" fill-opacity="0.1"/>
<path fill-rule="evenodd" clip-rule="evenodd" d="M433.897 112.666C428.544 110.075 422.104 112.315 419.513 117.668C416.922 123.022 419.162 129.462 424.515 132.053C429.869 134.644 436.309 132.404 438.9 127.051C441.491 121.697 439.251 115.257 433.897 112.666ZM423.296 119.499C424.876 116.235 428.802 114.869 432.067 116.449C435.331 118.029 436.697 121.955 435.117 125.22C433.537 128.484 429.611 129.85 426.346 128.27C423.081 126.69 421.716 122.764 423.296 119.499Z" fill="white" fill-opacity="0.1"/>
<path fill-rule="evenodd" clip-rule="evenodd" d="M414.744 157.671C413.101 161.066 409.017 162.486 405.622 160.843C402.227 159.2 400.807 155.116 402.45 151.721C404.093 148.326 408.176 146.906 411.571 148.549C414.967 150.192 416.387 154.276 414.744 157.671ZM406.705 153.78C406.2 154.825 406.637 156.082 407.681 156.587C408.726 157.093 409.983 156.656 410.488 155.611C410.994 154.567 410.557 153.31 409.512 152.804C408.468 152.299 407.211 152.736 406.705 153.78Z" fill="white" fill-opacity="0.1"/>
<path d="M383.904 116.484C382.729 115.915 381.315 116.407 380.746 117.582C380.177 118.757 380.669 120.171 381.844 120.739L387.755 123.6L384.666 129.983C384.097 131.158 384.589 132.572 385.764 133.141C386.939 133.709 388.352 133.218 388.921 132.043L392.01 125.659L397.921 128.52C399.096 129.088 400.51 128.597 401.078 127.422C401.647 126.247 401.155 124.833 399.98 124.264L383.904 116.484Z" fill="white" fill-opacity="0.1"/>
<path d="M396.729 163.542C397.361 162.237 398.932 161.69 400.238 162.322L408.276 166.212C411.149 167.602 414.604 166.4 415.994 163.528L420.228 154.78C420.796 153.605 422.21 153.114 423.385 153.682C424.56 154.251 425.052 155.665 424.483 156.84L420.25 165.587C417.596 171.072 410.999 173.366 405.515 170.712L397.949 167.05C396.644 166.419 396.097 164.848 396.729 163.542Z" fill="white" fill-opacity="0.1"/>
<path d="M378.26 116.086C378.892 114.781 378.345 113.21 377.04 112.578C375.734 111.946 374.163 112.492 373.532 113.798L371.472 118.053C369.829 121.448 371.249 125.532 374.644 127.175L378.427 129.006C379.733 129.638 381.304 129.091 381.935 127.786C382.567 126.48 382.021 124.909 380.715 124.277L377.878 122.904C376.573 122.273 376.026 120.702 376.658 119.396L378.26 116.086Z" fill="white" fill-opacity="0.1"/>
<path d="M399.889 117.217C400.521 115.912 402.092 115.365 403.397 115.997L406.707 117.599C408.013 118.231 409.584 117.684 410.216 116.379L411.589 113.542C412.22 112.236 413.791 111.69 415.097 112.322C416.402 112.953 416.949 114.524 416.317 115.83L414.486 119.613C412.843 123.008 408.76 124.428 405.365 122.785L401.109 120.726C399.803 120.094 399.257 118.523 399.889 117.217Z" fill="white" fill-opacity="0.1"/>
<path d="M388.221 147.753C389.351 148.3 389.823 149.659 389.276 150.789L387.521 154.417C387.015 155.461 387.42 156.702 388.424 157.188C389.428 157.674 390.652 157.222 391.158 156.177L397.033 144.038C397.579 142.908 398.939 142.435 400.069 142.982C401.199 143.529 401.671 144.888 401.125 146.018L395.479 157.685C393.836 161.08 389.858 162.551 386.593 160.971C383.329 159.391 382.014 155.359 383.657 151.964L385.184 148.808C385.731 147.678 387.091 147.206 388.221 147.753Z" fill="white" fill-opacity="0.1"/>
<path d="M406.348 135.224C404.933 138.147 401.473 139.415 398.52 138.14L398.518 138.141L398.516 138.142C398.516 138.144 398.514 138.144 398.513 138.143L398.042 137.916C396.998 137.41 395.741 137.847 395.236 138.892L393.634 142.202C393.002 143.507 391.431 144.054 390.125 143.422C388.82 142.79 388.273 141.219 388.905 139.913L390.621 136.367C392.036 133.444 395.497 132.176 398.449 133.451L398.451 133.45L398.453 133.449C398.454 133.447 398.455 133.447 398.457 133.448L398.927 133.675C399.972 134.181 401.228 133.744 401.734 132.699L403.336 129.389C403.967 128.084 405.539 127.537 406.844 128.169C408.15 128.801 408.696 130.372 408.064 131.678L406.348 135.224Z" fill="white" fill-opacity="0.1"/>
<path d="M410.001 136.117C411.518 132.983 415.288 131.672 418.422 133.188L419.331 133.628C422.224 135.028 423.339 138.704 421.823 141.837C421.823 141.837 421.251 143.019 421.258 143.607C421.267 144.295 421.513 144.605 422.097 144.888C423.142 145.394 424.398 144.956 424.904 143.912L426.849 139.893C427.417 138.718 428.831 138.226 430.006 138.795C431.181 139.363 431.673 140.777 431.104 141.952L428.93 146.444C427.414 149.578 423.644 150.889 420.51 149.372L419.601 148.932C416.708 147.532 415.593 143.857 417.109 140.724L417.224 140.487C418.139 138.596 417.419 137.956 416.835 137.673C415.79 137.167 414.534 137.604 414.028 138.649L412.083 142.668C411.515 143.843 410.101 144.335 408.926 143.766C407.751 143.197 407.259 141.784 407.828 140.609L410.001 136.117Z" fill="white" fill-opacity="0.1"/>
<path fill-rule="evenodd" clip-rule="evenodd" d="M872.646 205.722L911.036 218.552L911.1 218.547C914.55 206.896 922.707 196.684 934.506 190.974C956.741 180.214 983.489 189.516 994.249 211.75C994.336 211.931 994.423 212.113 994.507 212.294L994.561 212.29C994.946 213.156 995.347 214.02 995.763 214.879C1016.73 258.197 1068.84 276.318 1112.15 255.355C1155.47 234.392 1173.59 182.283 1152.63 138.965C1131.67 95.648 1079.56 77.5264 1036.24 98.4895C1012.07 110.184 995.749 131.572 989.678 155.719C976.593 149.186 958.04 144.979 934.827 150.142C894.662 159.075 876.638 190.917 872.646 205.722ZM1032.48 197.112C1043.63 220.153 1071.34 229.793 1094.39 218.642C1117.43 207.491 1127.07 179.773 1115.92 156.732C1104.76 133.691 1077.05 124.052 1054.01 135.203C1030.96 146.353 1021.33 174.071 1032.48 197.112Z" fill="white" fill-opacity="0.1"/>
<path d="M1056.34 339.52L997.284 217.491C986.684 195.588 974.064 145.571 1021.5 107.939C1068.94 70.3063 1120.25 101.856 1127.53 107.858L1102.04 139.763L1101.99 139.82C1088.56 129.78 1070.14 127.396 1054.01 135.203C1030.97 146.354 1021.33 174.072 1032.48 197.113C1034.03 200.313 1035.89 203.256 1038.03 205.919L1079.55 291.729C1084.12 301.703 1085.88 325.226 1056.34 339.52Z" fill="white" fill-opacity="0.1"/>
<path d="M1059.94 157.046C1058.79 157.603 1057.4 157.121 1056.85 155.969C1056.29 154.817 1056.77 153.431 1057.92 152.874L1061.68 151.057C1064.67 149.607 1068.28 150.86 1069.73 153.855L1071.34 157.193C1071.9 158.345 1071.42 159.731 1070.27 160.288C1069.11 160.846 1067.73 160.364 1067.17 159.212L1065.96 156.709C1065.4 155.557 1064.01 155.075 1062.86 155.632L1059.94 157.046Z" fill="white" fill-opacity="0.1"/>
<path d="M1079.27 153.357C1080.05 154.969 1081.99 155.644 1083.6 154.864C1085.22 154.083 1085.89 152.143 1085.11 150.53C1084.33 148.917 1082.39 148.242 1080.78 149.023C1079.16 149.803 1078.49 151.744 1079.27 153.357Z" fill="white" fill-opacity="0.1"/>
<path fill-rule="evenodd" clip-rule="evenodd" d="M1091.05 147.913C1088.77 143.189 1083.08 141.213 1078.36 143.499C1073.64 145.785 1071.66 151.467 1073.95 156.19C1076.23 160.914 1081.91 162.89 1086.64 160.604C1091.36 158.318 1093.34 152.636 1091.05 147.913ZM1079.97 146.837C1082.85 145.443 1086.32 146.647 1087.71 149.528C1089.11 152.408 1087.9 155.873 1085.02 157.266C1082.14 158.66 1078.68 157.456 1077.28 154.575C1075.89 151.695 1077.09 148.231 1079.97 146.837Z" fill="white" fill-opacity="0.1"/>
<path d="M1095.62 187.15C1096.4 188.762 1098.34 189.437 1099.96 188.657C1101.57 187.876 1102.24 185.936 1101.46 184.323C1100.68 182.71 1098.74 182.035 1097.13 182.816C1095.52 183.596 1094.84 185.537 1095.62 187.15Z" fill="white" fill-opacity="0.1"/>
<path fill-rule="evenodd" clip-rule="evenodd" d="M1107.4 181.706C1105.12 176.982 1099.44 175.006 1094.71 177.292C1089.99 179.578 1088.01 185.26 1090.3 189.983C1092.59 194.707 1098.27 196.683 1102.99 194.397C1107.71 192.111 1109.69 186.429 1107.4 181.706ZM1096.33 180.63C1099.21 179.236 1102.67 180.44 1104.07 183.321C1105.46 186.201 1104.26 189.666 1101.38 191.059C1098.5 192.453 1095.03 191.249 1093.64 188.368C1092.24 185.488 1093.45 182.023 1096.33 180.63Z" fill="white" fill-opacity="0.1"/>
<path d="M1049.81 171.218C1048.2 171.998 1046.26 171.324 1045.48 169.711C1044.69 168.098 1045.37 166.158 1046.98 165.377C1048.6 164.597 1050.54 165.271 1051.32 166.884C1052.1 168.497 1051.42 170.437 1049.81 171.218Z" fill="white" fill-opacity="0.1"/>
<path fill-rule="evenodd" clip-rule="evenodd" d="M1044.57 159.853C1049.29 157.567 1054.97 159.543 1057.26 164.267C1059.54 168.99 1057.57 174.672 1052.84 176.958C1048.12 179.244 1042.44 177.268 1040.15 172.544C1037.87 167.821 1039.84 162.139 1044.57 159.853ZM1053.92 165.882C1052.53 163.001 1049.06 161.797 1046.18 163.191C1043.3 164.585 1042.1 168.049 1043.49 170.929C1044.88 173.81 1048.35 175.014 1051.23 173.62C1054.11 172.227 1055.31 168.762 1053.92 165.882Z" fill="white" fill-opacity="0.1"/>
<path fill-rule="evenodd" clip-rule="evenodd" d="M1061.47 199.561C1062.92 202.556 1066.52 203.809 1069.51 202.359C1072.51 200.91 1073.76 197.307 1072.31 194.311C1070.86 191.316 1067.26 190.063 1064.26 191.512C1061.27 192.962 1060.02 196.565 1061.47 199.561ZM1068.56 196.128C1069 197.05 1068.62 198.159 1067.7 198.605C1066.78 199.051 1065.67 198.665 1065.22 197.744C1064.77 196.822 1065.16 195.713 1066.08 195.267C1067 194.821 1068.11 195.207 1068.56 196.128Z" fill="white" fill-opacity="0.1"/>
<path d="M1088.68 163.221C1089.71 162.72 1090.96 163.153 1091.46 164.19C1091.96 165.227 1091.53 166.474 1090.49 166.976L1085.28 169.5L1088 175.132C1088.51 176.169 1088.07 177.416 1087.04 177.918C1086 178.42 1084.75 177.986 1084.25 176.949L1081.52 171.317L1076.31 173.841C1075.27 174.342 1074.02 173.909 1073.52 172.872C1073.02 171.835 1073.46 170.588 1074.49 170.086L1088.68 163.221Z" fill="white" fill-opacity="0.1"/>
<path d="M1077.36 204.741C1076.8 203.589 1075.42 203.107 1074.26 203.665L1067.17 207.097C1064.64 208.324 1061.59 207.263 1060.36 204.729L1056.63 197.011C1056.13 195.974 1054.88 195.54 1053.84 196.042C1052.8 196.544 1052.37 197.791 1052.87 198.828L1056.61 206.546C1058.95 211.385 1064.77 213.409 1069.61 211.067L1076.28 207.837C1077.44 207.279 1077.92 205.893 1077.36 204.741Z" fill="white" fill-opacity="0.1"/>
<path d="M1093.66 162.871C1093.1 161.719 1093.58 160.333 1094.73 159.775C1095.88 159.218 1097.27 159.7 1097.83 160.852L1099.64 164.607C1101.09 167.602 1099.84 171.205 1096.85 172.655L1093.51 174.27C1092.36 174.827 1090.97 174.345 1090.41 173.194C1089.86 172.042 1090.34 170.656 1091.49 170.098L1093.99 168.887C1095.14 168.329 1095.63 166.943 1095.07 165.791L1093.66 162.871Z" fill="white" fill-opacity="0.1"/>
<path d="M1074.57 163.868C1074.01 162.716 1072.63 162.234 1071.48 162.792L1068.56 164.205C1067.4 164.763 1066.02 164.28 1065.46 163.129L1064.25 160.625C1063.69 159.474 1062.31 158.992 1061.15 159.549C1060 160.106 1059.52 161.493 1060.08 162.644L1061.69 165.982C1063.14 168.977 1066.75 170.23 1069.74 168.781L1073.5 166.964C1074.65 166.406 1075.13 165.02 1074.57 163.868Z" fill="white" fill-opacity="0.1"/>
<path d="M1084.87 190.81C1083.87 191.292 1083.45 192.492 1083.94 193.489L1085.49 196.69C1085.93 197.611 1085.57 198.706 1084.69 199.135C1083.8 199.564 1082.72 199.164 1082.28 198.243L1077.09 187.532C1076.61 186.535 1075.41 186.118 1074.41 186.601C1073.42 187.083 1073 188.282 1073.48 189.279L1078.46 199.573C1079.91 202.568 1083.42 203.867 1086.3 202.473C1089.18 201.079 1090.34 197.521 1088.89 194.525L1087.55 191.741C1087.06 190.744 1085.86 190.327 1084.87 190.81Z" fill="white" fill-opacity="0.1"/>
<path d="M1068.87 179.756C1070.12 182.335 1073.18 183.454 1075.78 182.329L1075.78 182.329L1075.78 182.331C1075.78 182.332 1075.79 182.333 1075.79 182.332L1076.2 182.131C1077.12 181.685 1078.23 182.071 1078.68 182.992L1080.09 185.913C1080.65 187.064 1082.04 187.547 1083.19 186.989C1084.34 186.432 1084.82 185.045 1084.26 183.894L1082.75 180.765C1081.5 178.186 1078.45 177.066 1075.84 178.191L1075.84 178.191L1075.84 178.19C1075.84 178.189 1075.84 178.188 1075.84 178.189L1075.42 178.39C1074.5 178.836 1073.39 178.45 1072.94 177.528L1071.53 174.608C1070.97 173.456 1069.59 172.974 1068.44 173.532C1067.28 174.089 1066.8 175.475 1067.36 176.627L1068.87 179.756Z" fill="white" fill-opacity="0.1"/>
<path d="M1065.65 180.544C1064.31 177.779 1060.99 176.622 1058.22 177.96L1057.42 178.348C1054.87 179.584 1053.88 182.826 1055.22 185.591C1055.22 185.591 1055.72 186.634 1055.72 187.152C1055.71 187.76 1055.49 188.033 1054.98 188.283C1054.06 188.729 1052.95 188.343 1052.5 187.422L1050.79 183.876C1050.28 182.839 1049.04 182.405 1048 182.907C1046.96 183.408 1046.53 184.656 1047.03 185.693L1048.95 189.656C1050.29 192.421 1053.61 193.577 1056.38 192.24L1057.18 191.851C1059.73 190.616 1060.72 187.373 1059.38 184.608L1059.28 184.4C1058.47 182.731 1059.11 182.166 1059.62 181.917C1060.54 181.471 1061.65 181.856 1062.1 182.778L1063.81 186.324C1064.31 187.361 1065.56 187.795 1066.6 187.293C1067.64 186.791 1068.07 185.544 1067.57 184.507L1065.65 180.544Z" fill="white" fill-opacity="0.1"/>
<path fill-rule="evenodd" clip-rule="evenodd" d="M1083.04 877.275L1121.44 890.105L1121.5 890.1C1124.95 878.45 1133.11 868.238 1144.91 862.528C1167.14 851.767 1193.89 861.069 1204.65 883.304C1204.74 883.485 1204.82 883.666 1204.91 883.847L1204.96 883.844C1205.35 884.71 1205.75 885.573 1206.16 886.433C1227.13 929.75 1279.23 947.872 1322.55 926.908C1365.87 905.945 1383.99 853.836 1363.03 810.518C1342.06 767.201 1289.96 749.08 1246.64 770.043C1222.47 781.737 1206.15 803.125 1200.08 827.272C1186.99 820.74 1168.44 816.532 1145.23 821.695C1105.06 830.628 1087.04 862.47 1083.04 877.275ZM1242.88 868.665C1254.03 891.706 1281.74 901.346 1304.78 890.195C1327.83 879.044 1337.46 851.327 1326.31 828.286C1315.16 805.244 1287.45 795.605 1264.4 806.756C1241.36 817.907 1231.72 845.624 1242.88 868.665Z" fill="white" fill-opacity="0.1"/>
<path d="M1266.74 1011.07L1207.68 889.044C1197.08 867.141 1184.46 817.124 1231.9 779.492C1279.34 741.86 1330.65 773.41 1337.93 779.412L1312.44 811.316L1312.39 811.373C1298.96 801.333 1280.54 798.95 1264.4 806.756C1241.36 817.907 1231.72 845.625 1242.88 868.666C1244.42 871.867 1246.29 874.809 1248.42 877.473L1289.95 963.282C1294.52 973.256 1296.28 996.779 1266.74 1011.07Z" fill="white" fill-opacity="0.1"/>
<path d="M1270.34 828.599C1269.19 829.156 1267.8 828.674 1267.25 827.522C1266.69 826.37 1267.17 824.984 1268.32 824.427L1272.08 822.61C1275.07 821.16 1278.68 822.413 1280.13 825.409L1281.74 828.746C1282.3 829.898 1281.82 831.284 1280.66 831.842C1279.51 832.399 1278.13 831.917 1277.57 830.765L1276.36 828.262C1275.8 827.11 1274.41 826.628 1273.26 827.186L1270.34 828.599Z" fill="white" fill-opacity="0.1"/>
<path d="M1289.67 824.91C1290.45 826.523 1292.39 827.197 1294 826.417C1295.61 825.636 1296.29 823.696 1295.51 822.083C1294.73 820.47 1292.79 819.796 1291.17 820.576C1289.56 821.357 1288.89 823.297 1289.67 824.91Z" fill="white" fill-opacity="0.1"/>
<path fill-rule="evenodd" clip-rule="evenodd" d="M1301.45 819.466C1299.16 814.742 1293.48 812.766 1288.76 815.052C1284.03 817.338 1282.06 823.02 1284.34 827.744C1286.63 832.467 1292.31 834.443 1297.04 832.157C1301.76 829.871 1303.74 824.189 1301.45 819.466ZM1290.37 818.39C1293.25 816.996 1296.72 818.201 1298.11 821.081C1299.51 823.961 1298.3 827.426 1295.42 828.82C1292.54 830.214 1289.08 829.009 1287.68 826.129C1286.29 823.248 1287.49 819.784 1290.37 818.39Z" fill="white" fill-opacity="0.1"/>
<path d="M1306.02 858.703C1306.8 860.316 1308.74 860.99 1310.35 860.21C1311.97 859.429 1312.64 857.489 1311.86 855.876C1311.08 854.263 1309.14 853.589 1307.53 854.369C1305.92 855.15 1305.24 857.09 1306.02 858.703Z" fill="white" fill-opacity="0.1"/>
<path fill-rule="evenodd" clip-rule="evenodd" d="M1317.8 853.259C1315.52 848.535 1309.84 846.559 1305.11 848.845C1300.39 851.131 1298.41 856.813 1300.7 861.537C1302.98 866.26 1308.67 868.236 1313.39 865.95C1318.11 863.664 1320.09 857.982 1317.8 853.259ZM1306.73 852.183C1309.61 850.789 1313.07 851.994 1314.47 854.874C1315.86 857.754 1314.66 861.219 1311.77 862.613C1308.89 864.007 1305.43 862.802 1304.04 859.921C1302.64 857.041 1303.85 853.577 1306.73 852.183Z" fill="white" fill-opacity="0.1"/>
<path d="M1260.21 842.771C1258.6 843.552 1256.65 842.877 1255.87 841.264C1255.09 839.651 1255.77 837.711 1257.38 836.93C1258.99 836.15 1260.93 836.825 1261.72 838.437C1262.5 840.05 1261.82 841.991 1260.21 842.771Z" fill="white" fill-opacity="0.1"/>
<path fill-rule="evenodd" clip-rule="evenodd" d="M1254.97 831.406C1259.69 829.12 1265.37 831.096 1267.66 835.82C1269.94 840.543 1267.97 846.225 1263.24 848.511C1258.52 850.797 1252.84 848.821 1250.55 844.098C1248.27 839.374 1250.24 833.692 1254.97 831.406ZM1264.32 837.435C1262.93 834.555 1259.46 833.35 1256.58 834.744C1253.7 836.138 1252.5 839.602 1253.89 842.483C1255.28 845.363 1258.75 846.568 1261.63 845.174C1264.51 843.78 1265.71 840.315 1264.32 837.435Z" fill="white" fill-opacity="0.1"/>
<path fill-rule="evenodd" clip-rule="evenodd" d="M1271.86 871.114C1273.31 874.109 1276.92 875.362 1279.91 873.913C1282.91 872.463 1284.16 868.86 1282.71 865.864C1281.26 862.869 1277.66 861.616 1274.66 863.066C1271.67 864.515 1270.42 868.118 1271.86 871.114ZM1278.96 867.682C1279.4 868.603 1279.02 869.712 1278.1 870.158C1277.17 870.604 1276.07 870.218 1275.62 869.297C1275.17 868.375 1275.56 867.266 1276.48 866.82C1277.4 866.374 1278.51 866.76 1278.96 867.682Z" fill="white" fill-opacity="0.1"/>
<path d="M1299.08 834.775C1300.11 834.273 1301.36 834.707 1301.86 835.743C1302.36 836.78 1301.93 838.028 1300.89 838.529L1295.68 841.053L1298.4 846.685C1298.9 847.722 1298.47 848.969 1297.43 849.471C1296.4 849.973 1295.15 849.539 1294.65 848.502L1291.92 842.87L1286.71 845.394C1285.67 845.896 1284.42 845.462 1283.92 844.425C1283.42 843.388 1283.85 842.141 1284.89 841.639L1299.08 834.775Z" fill="white" fill-opacity="0.1"/>
<path d="M1287.76 876.295C1287.2 875.143 1285.82 874.661 1284.66 875.218L1277.57 878.65C1275.04 879.877 1271.99 878.817 1270.76 876.282L1267.03 868.564C1266.52 867.527 1265.28 867.093 1264.24 867.595C1263.2 868.097 1262.77 869.344 1263.27 870.381L1267.01 878.099C1269.35 882.938 1275.17 884.962 1280.01 882.62L1286.68 879.39C1287.83 878.833 1288.32 877.446 1287.76 876.295Z" fill="white" fill-opacity="0.1"/>
<path d="M1304.05 834.424C1303.5 833.272 1303.98 831.886 1305.13 831.329C1306.28 830.771 1307.67 831.253 1308.23 832.405L1310.04 836.16C1311.49 839.155 1310.24 842.758 1307.25 844.208L1303.91 845.823C1302.76 846.381 1301.37 845.899 1300.81 844.747C1300.25 843.595 1300.74 842.209 1301.89 841.651L1304.39 840.44C1305.54 839.882 1306.03 838.496 1305.47 837.344L1304.05 834.424Z" fill="white" fill-opacity="0.1"/>
<path d="M1284.97 835.422C1284.41 834.27 1283.03 833.788 1281.88 834.345L1278.96 835.758C1277.8 836.316 1276.42 835.834 1275.86 834.682L1274.65 832.179C1274.09 831.027 1272.71 830.545 1271.55 831.102C1270.4 831.66 1269.92 833.046 1270.48 834.198L1272.09 837.535C1273.54 840.531 1277.14 841.784 1280.14 840.334L1283.89 838.517C1285.05 837.96 1285.53 836.573 1284.97 835.422Z" fill="white" fill-opacity="0.1"/>
<path d="M1295.27 862.363C1294.27 862.846 1293.85 864.045 1294.33 865.042L1295.88 868.243C1296.33 869.165 1295.97 870.26 1295.09 870.688C1294.2 871.117 1293.12 870.718 1292.67 869.796L1287.49 859.085C1287.01 858.088 1285.81 857.671 1284.81 858.154C1283.82 858.636 1283.4 859.836 1283.88 860.833L1288.86 871.126C1290.31 874.122 1293.82 875.42 1296.7 874.026C1299.58 872.632 1300.74 869.074 1299.29 866.079L1297.95 863.295C1297.46 862.298 1296.26 861.881 1295.27 862.363Z" fill="white" fill-opacity="0.1"/>
<path d="M1279.27 851.309C1280.52 853.888 1283.57 855.007 1286.18 853.883L1286.18 853.883L1286.18 853.884C1286.18 853.885 1286.18 853.886 1286.19 853.885L1286.6 853.684C1287.52 853.238 1288.63 853.624 1289.08 854.545L1290.49 857.466C1291.05 858.618 1292.43 859.1 1293.59 858.542C1294.74 857.985 1295.22 856.599 1294.66 855.447L1293.15 852.318C1291.9 849.739 1288.85 848.62 1286.24 849.745L1286.24 849.744L1286.24 849.743C1286.24 849.742 1286.24 849.741 1286.24 849.742L1285.82 849.943C1284.9 850.389 1283.79 850.003 1283.34 849.082L1281.93 846.161C1281.37 845.009 1279.99 844.527 1278.83 845.085C1277.68 845.642 1277.2 847.028 1277.76 848.18L1279.27 851.309Z" fill="white" fill-opacity="0.1"/>
<path d="M1276.05 852.097C1274.71 849.332 1271.38 848.175 1268.62 849.513L1267.82 849.902C1265.27 851.137 1264.28 854.38 1265.62 857.144C1265.62 857.144 1266.12 858.187 1266.12 858.706C1266.11 859.313 1265.89 859.587 1265.38 859.836C1264.46 860.282 1263.35 859.896 1262.9 858.975L1261.18 855.429C1260.68 854.392 1259.44 853.958 1258.4 854.46C1257.36 854.962 1256.93 856.209 1257.43 857.246L1259.35 861.209C1260.69 863.974 1264.01 865.131 1266.78 863.793L1267.58 863.404C1270.13 862.169 1271.12 858.926 1269.78 856.162L1269.68 855.953C1268.87 854.284 1269.5 853.72 1270.02 853.47C1270.94 853.024 1272.05 853.41 1272.5 854.331L1274.21 857.877C1274.71 858.914 1275.96 859.348 1277 858.846C1278.03 858.344 1278.47 857.097 1277.97 856.06L1276.05 852.097Z" fill="white" fill-opacity="0.1"/>
<path fill-rule="evenodd" clip-rule="evenodd" d="M683.751 710.653L640.239 725.195L640.167 725.19C636.257 711.985 627.012 700.41 613.639 693.939C588.439 681.743 558.123 692.286 545.927 717.486C545.828 717.691 545.73 717.897 545.634 718.102L545.573 718.098C545.137 719.08 544.683 720.058 544.211 721.032C520.452 770.128 461.391 790.667 412.296 766.907C363.2 743.148 342.661 684.088 366.421 634.992C390.18 585.897 449.241 565.358 498.336 589.117C525.725 602.372 544.226 626.613 551.107 653.98C565.939 646.577 586.966 641.808 613.276 647.659C658.798 657.784 679.227 693.874 683.751 710.653ZM502.601 700.895C489.963 727.01 458.548 737.935 432.433 725.297C406.318 712.659 395.393 681.244 408.031 655.129C420.669 629.014 452.084 618.09 478.199 630.728C504.314 643.366 515.239 674.781 502.601 700.895Z" fill="white" fill-opacity="0.1"/>
<path d="M475.554 862.3L542.487 723.992C554.501 699.168 568.804 642.479 515.038 599.827C461.272 557.175 403.116 592.933 394.863 599.736L423.759 635.896L423.817 635.961C439.034 624.582 459.915 621.88 478.199 630.729C504.313 643.366 515.238 674.782 502.6 700.896C500.845 704.524 498.727 707.859 496.311 710.878L449.245 808.133C444.066 819.438 442.077 846.099 475.554 862.3Z" fill="white" fill-opacity="0.1"/>
<path d="M471.47 655.484C472.776 656.116 474.347 655.57 474.979 654.264C475.61 652.959 475.064 651.388 473.759 650.756L469.503 648.696C466.108 647.053 462.024 648.474 460.381 651.869L458.551 655.651C457.919 656.957 458.465 658.528 459.771 659.16C461.076 659.792 462.647 659.245 463.279 657.94L464.652 655.103C465.284 653.797 466.855 653.251 468.16 653.883L471.47 655.484Z" fill="white" fill-opacity="0.1"/>
<path d="M449.566 651.303C448.682 653.131 446.483 653.896 444.655 653.011C442.827 652.127 442.062 649.928 442.947 648.1C443.831 646.272 446.03 645.507 447.858 646.392C449.686 647.276 450.451 649.475 449.566 651.303Z" fill="white" fill-opacity="0.1"/>
<path fill-rule="evenodd" clip-rule="evenodd" d="M436.212 645.133C438.803 639.779 445.243 637.54 450.597 640.131C455.95 642.722 458.19 649.162 455.599 654.515C453.008 659.869 446.568 662.108 441.215 659.517C435.861 656.927 433.622 650.487 436.212 645.133ZM448.766 643.913C445.502 642.334 441.575 643.699 439.995 646.964C438.415 650.228 439.781 654.155 443.045 655.735C446.31 657.314 450.236 655.949 451.816 652.684C453.396 649.42 452.031 645.493 448.766 643.913Z" fill="white" fill-opacity="0.1"/>
<path d="M431.031 689.604C430.146 691.432 427.947 692.197 426.119 691.312C424.291 690.428 423.527 688.229 424.411 686.4C425.296 684.572 427.495 683.808 429.323 684.692C431.151 685.577 431.916 687.776 431.031 689.604Z" fill="white" fill-opacity="0.1"/>
<path fill-rule="evenodd" clip-rule="evenodd" d="M417.677 683.434C420.268 678.08 426.708 675.841 432.061 678.432C437.415 681.022 439.655 687.462 437.064 692.816C434.473 698.169 428.033 700.409 422.679 697.818C417.326 695.227 415.086 688.787 417.677 683.434ZM430.231 682.214C426.966 680.634 423.04 682 421.46 685.264C419.88 688.529 421.245 692.456 424.51 694.035C427.774 695.615 431.701 694.25 433.281 690.985C434.861 687.721 433.495 683.794 430.231 682.214Z" fill="white" fill-opacity="0.1"/>
<path d="M482.956 671.547C484.784 672.432 486.983 671.667 487.867 669.839C488.752 668.011 487.987 665.812 486.159 664.927C484.331 664.043 482.132 664.807 481.247 666.635C480.363 668.463 481.128 670.662 482.956 671.547Z" fill="white" fill-opacity="0.1"/>
<path fill-rule="evenodd" clip-rule="evenodd" d="M488.897 658.666C483.544 656.075 477.104 658.315 474.513 663.668C471.922 669.022 474.162 675.462 479.515 678.053C484.869 680.644 491.309 678.404 493.9 673.051C496.491 667.697 494.251 661.257 488.897 658.666ZM478.296 665.499C479.876 662.235 483.802 660.869 487.067 662.449C490.331 664.029 491.697 667.955 490.117 671.22C488.537 674.484 484.611 675.85 481.346 674.27C478.081 672.69 476.716 668.764 478.296 665.499Z" fill="white" fill-opacity="0.1"/>
<path fill-rule="evenodd" clip-rule="evenodd" d="M469.744 703.671C468.101 707.066 464.017 708.486 460.622 706.843C457.227 705.2 455.807 701.116 457.45 697.721C459.093 694.326 463.177 692.906 466.572 694.549C469.967 696.192 471.387 700.276 469.744 703.671ZM461.705 699.78C461.2 700.825 461.637 702.082 462.681 702.587C463.726 703.093 464.983 702.656 465.488 701.611C465.994 700.567 465.557 699.31 464.512 698.804C463.468 698.299 462.211 698.736 461.705 699.78Z" fill="white" fill-opacity="0.1"/>
<path d="M438.904 662.484C437.729 661.915 436.315 662.407 435.746 663.582C435.177 664.757 435.669 666.171 436.844 666.739L442.755 669.6L439.666 675.983C439.097 677.158 439.589 678.572 440.764 679.141C441.939 679.709 443.353 679.218 443.921 678.043L447.01 671.659L452.921 674.52C454.096 675.088 455.51 674.597 456.079 673.422C456.647 672.247 456.155 670.833 454.98 670.264L438.904 662.484Z" fill="white" fill-opacity="0.1"/>
<path d="M451.729 709.542C452.361 708.237 453.932 707.69 455.238 708.322L463.276 712.212C466.149 713.602 469.604 712.4 470.994 709.528L475.228 700.78C475.797 699.605 477.21 699.114 478.385 699.682C479.56 700.251 480.052 701.665 479.483 702.84L475.25 711.587C472.596 717.072 465.999 719.366 460.515 716.712L452.949 713.05C451.644 712.419 451.097 710.848 451.729 709.542Z" fill="white" fill-opacity="0.1"/>
<path d="M433.26 662.086C433.892 660.781 433.346 659.21 432.04 658.578C430.734 657.946 429.163 658.492 428.532 659.798L426.472 664.053C424.829 667.448 426.249 671.532 429.644 673.175L433.427 675.006C434.733 675.638 436.304 675.091 436.936 673.786C437.567 672.48 437.021 670.909 435.715 670.277L432.878 668.904C431.573 668.273 431.026 666.702 431.658 665.396L433.26 662.086Z" fill="white" fill-opacity="0.1"/>
<path d="M454.889 663.217C455.521 661.912 457.092 661.365 458.397 661.997L461.707 663.599C463.013 664.231 464.584 663.684 465.216 662.379L466.589 659.542C467.22 658.236 468.792 657.69 470.097 658.322C471.403 658.953 471.949 660.524 471.317 661.83L469.486 665.613C467.843 669.008 463.76 670.428 460.365 668.785L456.109 666.726C454.804 666.094 454.257 664.523 454.889 663.217Z" fill="white" fill-opacity="0.1"/>
<path d="M443.221 693.753C444.351 694.3 444.823 695.659 444.276 696.789L442.521 700.417C442.015 701.461 442.42 702.702 443.424 703.188C444.428 703.674 445.652 703.222 446.158 702.177L452.033 690.038C452.579 688.908 453.939 688.435 455.069 688.982C456.199 689.529 456.671 690.888 456.125 692.018L450.479 703.685C448.836 707.08 444.858 708.551 441.593 706.971C438.329 705.391 437.014 701.359 438.657 697.964L440.184 694.808C440.731 693.678 442.091 693.206 443.221 693.753Z" fill="white" fill-opacity="0.1"/>
<path d="M461.348 681.224C459.933 684.147 456.473 685.415 453.52 684.14L453.518 684.141L453.516 684.142C453.516 684.144 453.514 684.144 453.513 684.143L453.042 683.916C451.998 683.41 450.741 683.847 450.236 684.892L448.634 688.202C448.002 689.507 446.431 690.054 445.125 689.422C443.82 688.79 443.273 687.219 443.905 685.913L445.621 682.367C447.036 679.444 450.497 678.176 453.449 679.451L453.451 679.45L453.453 679.449C453.454 679.447 453.455 679.447 453.457 679.448L453.927 679.675C454.972 680.181 456.228 679.744 456.734 678.699L458.336 675.389C458.967 674.084 460.539 673.537 461.844 674.169C463.15 674.801 463.696 676.372 463.064 677.678L461.348 681.224Z" fill="white" fill-opacity="0.1"/>
<path d="M465.001 682.117C466.518 678.983 470.288 677.672 473.422 679.188L474.331 679.628C477.224 681.028 478.339 684.704 476.823 687.837C476.823 687.837 476.251 689.019 476.258 689.607C476.267 690.295 476.513 690.605 477.097 690.888C478.142 691.394 479.398 690.956 479.904 689.912L481.849 685.893C482.417 684.718 483.831 684.226 485.006 684.795C486.181 685.363 486.673 686.777 486.104 687.952L483.93 692.444C482.414 695.578 478.644 696.889 475.51 695.372L474.601 694.932C471.708 693.532 470.593 689.857 472.109 686.724L472.224 686.487C473.139 684.596 472.419 683.956 471.835 683.673C470.79 683.167 469.534 683.604 469.028 684.649L467.083 688.668C466.515 689.843 465.101 690.335 463.926 689.766C462.751 689.197 462.259 687.784 462.828 686.609L465.001 682.117Z" fill="white" fill-opacity="0.1"/>
</svg>
